<svg width="200" height="60" viewBox="0 0 200 60" fill="none" xmlns="http://www.w3.org/2000/svg">
<path d="M52.2225 28.4885C52.2911 28.4199 52.2568 28.214 52.2911 27.9395C51.8107 27.9738 51.3645 27.9738 50.9184 28.0767C49.4771 28.3512 48.0359 28.6944 46.5946 28.9689C40.4863 30.1014 34.3436 30.7877 28.098 30.273C24.7007 29.9984 21.3034 29.8269 17.9061 29.621C17.1854 29.5866 16.5334 29.5523 15.9157 29.9984C14.0283 31.3368 12.0036 32.5035 9.77307 33.1899C9.77307 33.3614 9.8417 33.4987 9.87602 33.6703C10.631 33.8076 11.3516 33.9791 12.1066 34.0821C17.6315 34.8027 23.1908 35.2832 28.7844 35.3518C31.6326 35.3518 34.5152 35.5577 37.3635 35.1116C38.5988 34.94 39.8342 34.8027 41.0696 34.6998C42.7854 34.5625 44.3983 34.0821 45.9426 33.2585C48.2761 31.9888 50.3007 30.3416 52.2568 28.5228L52.2225 28.4885Z" fill="#FFFEFD"/>
<path d="M23.6713 19.0201C23.8086 18.1279 23.5341 17.6131 22.8134 17.5102L22.1957 17.4072L21.7839 19.9466L22.3673 20.0496C22.985 20.1525 23.5341 19.8094 23.637 19.0201H23.6713Z" fill="#AE6E0F"/>
<path d="M23.2251 23.0685C23.3967 22.0733 23.0879 21.5586 22.127 21.387L21.6123 21.3184L21.1318 24.2353L21.8182 24.3382C22.7104 24.4755 23.0879 24.0294 23.2251 23.0685Z" fill="#AE6E0F"/>
<path d="M46.0457 38.6815L45.428 38.7844L46.08 42.319L46.6977 42.2161C47.7272 42.0102 48.0017 41.5641 47.7272 40.1914C47.487 38.8531 47.0752 38.4756 46.0457 38.6815Z" fill="#AE6E0F"/>
<path d="M46.7321 42.2161L46.1144 42.319L45.4624 38.7844L46.0801 38.6815C47.1096 38.4756 47.5214 38.8531 47.7616 40.1914C48.0361 41.5641 47.7616 42.0102 46.7321 42.2161Z" fill="#AE6E0F"/>
<path d="M56.9239 45.6131C56.2376 44.3777 55.5513 43.1767 54.8306 41.9756C54.4531 41.3236 54.3159 40.7402 54.5561 39.9852C54.8993 38.8871 55.1738 37.7547 55.4826 36.6222C55.8258 35.2839 56.169 33.9112 56.169 32.367C53.5952 32.6415 51.1588 33.4651 48.5507 33.4994C48.688 33.2592 48.7223 33.0876 48.8253 33.019C50.7813 31.715 52.3598 29.9992 54.11 28.4549C54.8993 27.7343 55.1738 26.9793 55.1395 26.0185C54.8306 20.9739 54.5218 15.9294 54.1786 10.9192C54.1786 10.6447 53.9384 10.3702 53.7668 10.027C52.3942 10.2329 51.1245 10.4388 49.8204 10.679C43.6092 11.8115 37.3636 12.4635 31.0494 12.2919C28.2697 12.2233 25.4558 12.1889 22.6762 11.9487C18.7298 11.5712 14.7834 11.1251 11.0429 9.68385C10.6997 9.54658 10.3223 9.51227 9.80751 9.375C9.77319 10.0613 9.67024 10.6104 9.73887 11.0908C9.94477 13.1155 10.1164 15.1058 10.4252 17.0962C10.5625 17.8855 10.4252 18.4345 10.0134 19.0179C8.7437 20.871 7.50831 22.7584 6.27292 24.6458C6.0327 25.0233 5.65522 25.3664 5.92975 25.9841C8.60643 27.597 11.6949 28.249 14.9893 29.0726C14.2 29.8276 13.445 30.1707 12.6558 30.5139C10.4252 31.5091 8.09169 32.0581 5.72385 32.4356C5.14048 32.5386 4.52278 32.7101 3.97372 32.8131C3.80214 33.1906 3.63055 33.4651 3.56192 33.774C2.80696 37.8919 2.12063 42.0442 1.88042 46.2308C1.8461 46.8142 1.98337 47.4319 2.052 48.0153C4.38551 49.285 6.8563 49.7311 9.25844 50.1772C20.4113 52.2362 31.6327 52.6823 42.8885 51.3096C47.0408 50.7949 51.1931 50.1086 55.2424 49.0448C56.2033 48.8046 57.1985 48.6673 58.125 47.878C57.7132 47.0887 57.3357 46.3338 56.9239 45.6131ZM43.9866 15.8608L44.1582 17.3021L42.5797 17.4737L43.5405 25.6067L41.8933 25.8126L40.9325 17.6796L39.3539 17.8511L39.1823 16.4099L43.9866 15.8265V15.8608ZM35.8537 16.5128C37.192 16.4442 38.0499 17.3707 38.2901 18.7091L36.7459 18.9836C36.6429 18.16 36.1625 17.9541 35.8193 17.9541C35.2703 17.9541 35.0301 18.3316 35.0644 18.9493C35.1673 20.5965 38.5647 21.1798 38.7019 23.7879C38.8049 25.4008 37.7754 26.3273 36.2311 26.3959C34.6869 26.4646 33.7604 25.2978 33.5888 23.8908L35.133 23.582C35.2703 24.5428 35.6821 25.0233 36.1968 24.989C36.7802 24.989 37.1234 24.6115 37.089 24.0624C36.9861 22.175 33.5888 21.8662 33.4172 19.0865C33.3142 17.5423 34.2065 16.6501 35.8193 16.5471L35.8537 16.5128ZM27.4461 16.7187L31.873 16.856V18.2973C31.8386 18.2973 29.059 18.2286 29.059 18.2286L28.9904 20.6994L31.118 20.768V22.2093C31.0837 22.2093 28.9561 22.1407 28.9561 22.1407L28.8874 24.9546L31.8386 25.0576V26.4989C31.8043 26.4989 27.1716 26.3616 27.1716 26.3616L27.4461 16.753V16.7187ZM20.7888 15.7922L23.2252 16.1696C24.9754 16.4442 25.6274 17.4737 25.3528 19.0865C25.2156 19.9101 24.7351 20.6994 23.9115 20.9053C24.7008 21.4201 25.0783 22.1407 24.8724 23.3761C24.6322 24.9546 23.74 26.0185 21.8869 25.7096L19.3131 25.2978L20.8231 15.7922H20.7888ZM14.7834 40.7402H14.5432C14.6804 39.6764 14.2686 38.6812 13.1705 38.3037C11.9008 37.8919 11.2145 39.1273 11.8322 40.0882C12.9303 41.804 14.6118 43.3139 13.9598 45.3729C13.6166 46.5397 12.5528 47.3289 11.0086 46.9515C9.73887 46.6083 9.18981 45.4415 9.18981 45.4415L8.64075 46.1965H8.40053C8.81233 45.0984 9.08686 44.1718 9.22413 43.0737H9.49866C9.43003 43.5541 9.29276 45.4758 10.6311 45.819C11.2488 45.9906 11.8322 45.819 12.1067 45.2013C13.1362 43.0394 9.80751 41.3579 10.2879 38.8871C10.5625 37.4801 11.592 36.9654 12.7587 37.1713C14.1657 37.4458 14.6461 38.7155 14.6461 38.7155L15.2295 37.9606L15.4697 38.0292C15.4697 38.0292 15.1265 38.9214 14.9893 39.4019C14.852 39.8823 14.8177 40.4657 14.7491 40.7402H14.7834ZM21.8526 42.3874H21.6123C21.7153 40.0195 21.2006 40.0195 18.867 39.6421L18.3866 42.7305L19.4161 42.9021C20.4799 43.0737 20.6172 42.2158 20.6172 42.2158H20.8574C20.8574 42.2501 20.6515 42.8678 20.5142 43.6228C20.4113 44.412 20.377 45.167 20.377 45.167H20.1367C20.1367 45.1327 20.274 44.2062 19.2102 44.0689L18.1807 43.9316L17.7003 47.1917C19.9308 47.5348 20.5142 47.7064 21.1319 45.4758L21.3378 45.5445L20.5829 48.6673C20.5829 48.6673 19.3475 48.3927 17.8032 48.1525C16.259 47.9123 15.2638 47.878 15.2638 47.878V47.6378C15.2981 47.6378 16.156 47.7751 16.3276 46.6083L17.3228 40.0539C17.5287 38.7155 16.6708 38.5783 16.6708 38.5783V38.338C16.7051 38.338 17.5973 38.5783 19.2102 38.8185C21.029 39.093 22.0241 39.1273 22.0241 39.1273L21.8182 42.3874H21.8526ZM28.1668 49.0448C28.1668 49.0448 26.9314 48.9075 25.3528 48.8389C23.9802 48.7702 22.8134 48.8389 22.8134 48.8389V48.5986C22.8134 48.5986 23.6713 48.7016 23.7057 47.7751L23.9802 40.5686C24.0145 39.5048 23.1566 39.4705 23.1566 39.4705V39.2303C23.1566 39.2303 24.0145 39.3675 24.7008 39.3675C25.4558 39.3675 26.3137 39.3675 26.3137 39.3675V39.6078C26.3137 39.6078 25.4215 39.6078 25.3872 40.6372L25.1126 47.9123C27.3775 47.9809 27.9609 48.0839 28.304 45.819H28.5443C28.5443 45.8533 28.1325 49.0448 28.1325 49.0448H28.1668ZM35.5791 48.7016C35.5791 48.7016 34.3094 48.7016 32.7652 48.7702C31.3925 48.8389 30.2258 49.0104 30.2258 49.0104V48.7702C30.2258 48.7702 31.0837 48.7702 31.0494 47.8437L30.6719 40.6372C30.6032 39.5734 29.7453 39.6078 29.7453 39.6078V39.3675C29.7453 39.3675 30.6032 39.4018 31.2553 39.3675C32.0102 39.3332 32.8681 39.196 32.8681 39.196V39.4362C32.8681 39.4362 32.0102 39.4705 32.0789 40.5686L32.4563 47.8437C34.7212 47.7407 35.3389 47.775 35.4419 45.4758H35.6821L35.5791 48.7016ZM40.0059 48.1525C38.4617 48.3241 37.5008 48.53 37.5008 48.53V48.2898C37.5008 48.2898 38.3244 48.1868 38.1872 47.0201L37.4322 40.4313C37.2949 39.093 36.437 39.196 36.437 39.196V38.9557C36.437 38.9557 37.3636 38.9557 38.9421 38.7842C40.7952 38.5783 41.7561 38.3724 41.7561 38.3724L42.4081 41.5981L42.2022 41.6667C41.6874 39.3675 41.207 39.4705 38.8392 39.745L39.1823 42.8335L40.2118 42.7305C41.2756 42.5933 41.1727 41.7697 41.1727 41.7697H41.4129C41.4129 41.7697 41.3786 42.3874 41.4472 43.1767C41.5502 43.9659 41.7218 44.6866 41.7218 44.6866H41.4815C41.4815 44.6866 41.3786 43.7943 40.3148 43.9316L39.2853 44.0346L39.6628 47.3289C41.9277 47.0887 42.511 47.0887 42.511 44.7895H42.7513L42.8199 48.0153C42.8199 48.0153 41.5502 48.0496 40.0059 48.2555V48.1525ZM41.0697 34.6319C39.8344 34.7348 38.599 34.8721 37.3636 35.0437C34.5153 35.4898 31.6327 35.3182 28.7845 35.2839C23.1909 35.2153 17.6316 34.7348 12.1067 34.0142C11.3517 33.9112 10.5968 33.7396 9.87614 33.6024C9.87614 33.4308 9.80751 33.2935 9.77319 33.1219C12.0038 32.4356 14.0284 31.2689 15.9158 29.9305C16.5678 29.4844 17.2198 29.5187 17.9062 29.553C21.3035 29.7933 24.7008 29.9648 28.0981 30.205C34.3437 30.6855 40.4864 30.0335 46.5947 28.901C48.036 28.6265 49.4773 28.3176 50.9186 28.0088C51.3647 27.9402 51.8108 27.9059 52.2912 27.8715C52.2569 28.1461 52.2912 28.352 52.2226 28.4206C50.3009 30.2394 48.2762 31.8866 45.9084 33.1563C44.3641 33.9799 42.7856 34.4603 41.0354 34.5976L41.0697 34.6319ZM50.3352 46.5397C49.7861 46.6426 48.9282 46.8828 48.9282 46.8828L48.8596 46.6426C48.8596 46.6426 49.4086 46.5397 48.8596 45.7847L46.9379 43.1767L46.2858 43.3139L46.8006 45.9906C47.0065 47.0544 48.2076 46.8142 48.2076 46.8142V47.0544C48.2419 47.0544 47.281 47.1574 46.4574 47.2946C45.9084 47.3976 44.8102 47.7064 44.8102 47.7064V47.4662C44.7759 47.4662 45.6338 47.2946 45.4279 46.2651L44.1239 39.4019C43.918 38.338 43.0601 38.5096 43.0601 38.5096V38.2694C43.0258 38.2694 46.0113 37.686 46.0113 37.686C47.5899 37.3772 48.8939 37.9606 49.2714 39.9166C49.5459 41.3922 49.2714 42.2844 48.2762 42.7992L50.3352 45.5445C50.9186 46.3338 51.7765 46.1279 51.7765 46.1279V46.3681C51.8108 46.3681 50.8842 46.4367 50.3352 46.5397Z" fill="#AE6E0F"/>
<path d="M71.2642 37V22.4545H77.0881C78.1581 22.4545 79.0507 22.6132 79.7656 22.9304C80.4806 23.2476 81.018 23.688 81.3778 24.2514C81.7377 24.8101 81.9176 25.4541 81.9176 26.1832C81.9176 26.7514 81.804 27.2509 81.5767 27.6818C81.3494 28.108 81.0369 28.4583 80.6392 28.733C80.2462 29.0028 79.7964 29.1946 79.2898 29.3082V29.4503C79.8438 29.474 80.3622 29.6302 80.8452 29.919C81.3329 30.2079 81.7282 30.6127 82.0312 31.1335C82.3343 31.6496 82.4858 32.2652 82.4858 32.9801C82.4858 33.7519 82.294 34.4408 81.9105 35.0469C81.5317 35.6482 80.9706 36.1241 80.2273 36.4744C79.4839 36.8248 78.5677 37 77.4787 37H71.2642ZM74.3395 34.4858H76.8466C77.7036 34.4858 78.3286 34.3224 78.7216 33.9957C79.1146 33.6643 79.3111 33.224 79.3111 32.6747C79.3111 32.2723 79.214 31.9171 79.0199 31.6094C78.8258 31.3016 78.5488 31.0601 78.1889 30.8849C77.8338 30.7098 77.41 30.6222 76.9176 30.6222H74.3395V34.4858ZM74.3395 28.5412H76.6193C77.0407 28.5412 77.4148 28.4678 77.7415 28.321C78.0729 28.1695 78.3333 27.9564 78.5227 27.6818C78.7169 27.4072 78.8139 27.0781 78.8139 26.6946C78.8139 26.169 78.6269 25.7453 78.2528 25.4233C77.8835 25.1013 77.358 24.9403 76.6761 24.9403H74.3395V28.5412ZM89.4016 37.2131C88.2795 37.2131 87.3136 36.9858 86.5039 36.5312C85.699 36.072 85.0787 35.4233 84.6431 34.5852C84.2075 33.7424 83.9897 32.7457 83.9897 31.5952C83.9897 30.473 84.2075 29.4882 84.6431 28.6406C85.0787 27.7931 85.6919 27.1326 86.4826 26.6591C87.2781 26.1856 88.2108 25.9489 89.2809 25.9489C90.0006 25.9489 90.6706 26.0649 91.2908 26.2969C91.9158 26.5241 92.4603 26.8674 92.9244 27.3267C93.3931 27.786 93.7577 28.3636 94.0181 29.0597C94.2785 29.7509 94.4087 30.5606 94.4087 31.4886V32.3196H85.1971V30.4446H91.5607C91.5607 30.009 91.466 29.6231 91.2766 29.2869C91.0872 28.9508 90.8245 28.688 90.4883 28.4986C90.1568 28.3045 89.771 28.2074 89.3306 28.2074C88.8713 28.2074 88.4641 28.3139 88.109 28.527C87.7586 28.7353 87.484 29.017 87.2852 29.3722C87.0863 29.7225 86.9845 30.1132 86.9798 30.544V32.3267C86.9798 32.8665 87.0792 33.3329 87.2781 33.7259C87.4817 34.1188 87.7681 34.4219 88.1374 34.6349C88.5067 34.848 88.9447 34.9545 89.4513 34.9545C89.7875 34.9545 90.0953 34.9072 90.3746 34.8125C90.654 34.7178 90.8931 34.5758 91.092 34.3864C91.2908 34.197 91.4424 33.965 91.5465 33.6903L94.3448 33.875C94.2028 34.5473 93.9116 35.1345 93.4712 35.6364C93.0356 36.1335 92.4722 36.5218 91.7809 36.8011C91.0943 37.0758 90.3013 37.2131 89.4016 37.2131ZM105.46 29.2017L102.69 29.3722C102.643 29.1354 102.541 28.9223 102.385 28.733C102.228 28.5388 102.022 28.3849 101.767 28.2713C101.516 28.1529 101.215 28.0938 100.865 28.0938C100.396 28.0938 100.001 28.1932 99.6786 28.392C99.3567 28.5862 99.1957 28.8466 99.1957 29.1733C99.1957 29.4337 99.2998 29.6539 99.5082 29.8338C99.7165 30.0137 100.074 30.1581 100.581 30.267L102.555 30.6648C103.616 30.8826 104.406 31.233 104.927 31.7159C105.448 32.1989 105.708 32.8333 105.708 33.6193C105.708 34.3343 105.498 34.9616 105.076 35.5014C104.66 36.0412 104.087 36.4626 103.358 36.7656C102.633 37.0639 101.797 37.2131 100.85 37.2131C99.4064 37.2131 98.2558 36.9124 97.3988 36.3111C96.5465 35.705 96.047 34.8812 95.9002 33.8395L98.8761 33.6832C98.966 34.1236 99.1838 34.4598 99.5295 34.6918C99.8751 34.919 100.318 35.0327 100.858 35.0327C101.388 35.0327 101.814 34.9309 102.136 34.7273C102.463 34.5189 102.628 34.2514 102.633 33.9247C102.628 33.6501 102.512 33.4252 102.285 33.25C102.058 33.0701 101.708 32.9328 101.234 32.8381L99.3448 32.4616C98.2795 32.2486 97.4864 31.8793 96.9656 31.3537C96.4495 30.8281 96.1914 30.1581 96.1914 29.3438C96.1914 28.643 96.3808 28.0393 96.7596 27.5327C97.1431 27.026 97.6805 26.6354 98.3718 26.3608C99.0678 26.0862 99.8822 25.9489 100.815 25.9489C102.193 25.9489 103.277 26.2401 104.068 26.8224C104.863 27.4048 105.327 28.1979 105.46 29.2017ZM113.416 26.0909V28.3636H106.847V26.0909H113.416ZM108.338 23.4773H111.364V33.6477C111.364 33.9271 111.406 34.1449 111.491 34.3011C111.577 34.4527 111.695 34.5592 111.847 34.6207C112.003 34.6823 112.183 34.7131 112.386 34.7131C112.528 34.7131 112.67 34.7012 112.812 34.6776C112.955 34.6491 113.063 34.6278 113.139 34.6136L113.615 36.8651C113.464 36.9124 113.25 36.9669 112.976 37.0284C112.701 37.0947 112.367 37.1349 111.974 37.1491C111.245 37.1776 110.606 37.0805 110.057 36.858C109.512 36.6354 109.089 36.2898 108.786 35.821C108.482 35.3523 108.333 34.7604 108.338 34.0455V23.4773ZM127.963 26.6378C127.907 26.0649 127.663 25.6198 127.232 25.3026C126.801 24.9853 126.216 24.8267 125.478 24.8267C124.976 24.8267 124.552 24.8977 124.206 25.0398C123.861 25.1771 123.596 25.3688 123.411 25.6151C123.231 25.8613 123.141 26.1406 123.141 26.4531C123.132 26.7135 123.186 26.9408 123.304 27.1349C123.427 27.3291 123.596 27.4972 123.809 27.6392C124.022 27.7765 124.268 27.8973 124.547 28.0014C124.827 28.1009 125.125 28.1861 125.442 28.2571L126.749 28.5696C127.383 28.7116 127.966 28.901 128.496 29.1378C129.026 29.3745 129.486 29.6657 129.874 30.0114C130.262 30.357 130.563 30.7642 130.776 31.233C130.994 31.7017 131.105 32.2391 131.11 32.8452C131.105 33.7353 130.878 34.5071 130.428 35.1605C129.983 35.8092 129.339 36.3134 128.496 36.6733C127.658 37.0284 126.647 37.206 125.463 37.206C124.289 37.206 123.266 37.026 122.395 36.6662C121.529 36.3063 120.852 35.7737 120.364 35.0682C119.881 34.358 119.628 33.4796 119.604 32.4332H122.58C122.613 32.9209 122.753 33.3281 122.999 33.6548C123.25 33.9768 123.584 34.2206 124 34.3864C124.422 34.5473 124.898 34.6278 125.428 34.6278C125.949 34.6278 126.401 34.5521 126.784 34.4006C127.173 34.2491 127.473 34.0384 127.686 33.7685C127.9 33.4986 128.006 33.1884 128.006 32.8381C128.006 32.5114 127.909 32.2367 127.715 32.0142C127.525 31.7917 127.246 31.6023 126.877 31.446C126.512 31.2898 126.065 31.1477 125.534 31.0199L123.951 30.6222C122.724 30.3239 121.756 29.8575 121.046 29.223C120.336 28.5885 119.983 27.7339 119.988 26.6591C119.983 25.7784 120.217 25.009 120.691 24.3509C121.169 23.6927 121.825 23.179 122.658 22.8097C123.491 22.4403 124.438 22.2557 125.499 22.2557C126.578 22.2557 127.521 22.4403 128.326 22.8097C129.135 23.179 129.765 23.6927 130.215 24.3509C130.665 25.009 130.897 25.7713 130.911 26.6378H127.963ZM138.093 37.2131C136.971 37.2131 136.005 36.9858 135.195 36.5312C134.39 36.072 133.77 35.4233 133.335 34.5852C132.899 33.7424 132.681 32.7457 132.681 31.5952C132.681 30.473 132.899 29.4882 133.335 28.6406C133.77 27.7931 134.383 27.1326 135.174 26.6591C135.969 26.1856 136.902 25.9489 137.972 25.9489C138.692 25.9489 139.362 26.0649 139.982 26.2969C140.607 26.5241 141.152 26.8674 141.616 27.3267C142.085 27.786 142.449 28.3636 142.71 29.0597C142.97 29.7509 143.1 30.5606 143.1 31.4886V32.3196H133.888V30.4446H140.252C140.252 30.009 140.157 29.6231 139.968 29.2869C139.779 28.9508 139.516 28.688 139.18 28.4986C138.848 28.3045 138.462 28.2074 138.022 28.2074C137.563 28.2074 137.156 28.3139 136.8 28.527C136.45 28.7353 136.175 29.017 135.977 29.3722C135.778 29.7225 135.676 30.1132 135.671 30.544V32.3267C135.671 32.8665 135.771 33.3329 135.969 33.7259C136.173 34.1188 136.46 34.4219 136.829 34.6349C137.198 34.848 137.636 34.9545 138.143 34.9545C138.479 34.9545 138.787 34.9072 139.066 34.8125C139.345 34.7178 139.585 34.5758 139.783 34.3864C139.982 34.197 140.134 33.965 140.238 33.6903L143.036 33.875C142.894 34.5473 142.603 35.1345 142.163 35.6364C141.727 36.1335 141.164 36.5218 140.472 36.8011C139.786 37.0758 138.993 37.2131 138.093 37.2131ZM148.1 22.4545V37H145.075V22.4545H148.1ZM153.549 22.4545V37H150.524V22.4545H153.549ZM160.945 37.2131C159.822 37.2131 158.857 36.9858 158.047 36.5312C157.242 36.072 156.622 35.4233 156.186 34.5852C155.75 33.7424 155.533 32.7457 155.533 31.5952C155.533 30.473 155.75 29.4882 156.186 28.6406C156.622 27.7931 157.235 27.1326 158.026 26.6591C158.821 26.1856 159.754 25.9489 160.824 25.9489C161.544 25.9489 162.214 26.0649 162.834 26.2969C163.459 26.5241 164.003 26.8674 164.467 27.3267C164.936 27.786 165.301 28.3636 165.561 29.0597C165.821 29.7509 165.952 30.5606 165.952 31.4886V32.3196H156.74V30.4446H163.104C163.104 30.009 163.009 29.6231 162.82 29.2869C162.63 28.9508 162.367 28.688 162.031 28.4986C161.7 28.3045 161.314 28.2074 160.874 28.2074C160.414 28.2074 160.007 28.3139 159.652 28.527C159.302 28.7353 159.027 29.017 158.828 29.3722C158.629 29.7225 158.527 30.1132 158.523 30.544V32.3267C158.523 32.8665 158.622 33.3329 158.821 33.7259C159.025 34.1188 159.311 34.4219 159.68 34.6349C160.05 34.848 160.488 34.9545 160.994 34.9545C161.33 34.9545 161.638 34.9072 161.918 34.8125C162.197 34.7178 162.436 34.5758 162.635 34.3864C162.834 34.197 162.985 33.965 163.089 33.6903L165.888 33.875C165.746 34.5473 165.455 35.1345 165.014 35.6364C164.579 36.1335 164.015 36.5218 163.324 36.8011C162.637 37.0758 161.844 37.2131 160.945 37.2131ZM167.926 37V26.0909H170.859V27.9943H170.973C171.172 27.3172 171.506 26.8059 171.974 26.4602C172.443 26.1098 172.983 25.9347 173.594 25.9347C173.745 25.9347 173.909 25.9441 174.084 25.9631C174.259 25.982 174.413 26.008 174.545 26.0412V28.7259C174.403 28.6832 174.207 28.6454 173.956 28.6122C173.705 28.5791 173.475 28.5625 173.267 28.5625C172.822 28.5625 172.424 28.6596 172.074 28.8537C171.728 29.0431 171.454 29.3082 171.25 29.6491C171.051 29.9901 170.952 30.383 170.952 30.8281V37H167.926Z" fill="#AE6E0F"/>
</svg>
