<svg width="139" height="60" viewBox="0 0 139 60" fill="none" xmlns="http://www.w3.org/2000/svg">
<g opacity="0.6">
<path d="M20.3405 20.3252C21.6842 20.2191 23.028 20.2194 24.3717 20.4492C25.3263 20.626 26.2103 20.8909 27.1119 21.209C28.4911 21.6863 29.6057 22.5355 30.6842 23.5078C33.3185 25.8942 35.2455 28.7578 36.8014 31.9219C37.7208 33.778 38.5698 35.6516 38.9235 37.7021L38.8883 37.6846C39.1358 39.1871 39.1712 40.6898 39.0475 42.1924C38.9768 42.9878 38.7114 43.748 38.3932 44.4727C37.7567 45.9221 37.0495 46.6119 36.1832 47.9375C34.5742 50.43 33.053 50.6245 30.2594 51.5791C29.1278 51.968 27.9605 52.1626 26.7936 52.4277C26.4931 52.4984 26.1575 52.5158 25.8571 52.4805C23.4878 52.18 21.1535 51.7736 19.0494 50.5361C18.6959 50.3241 18.3422 50.1653 18.024 49.918C14.753 47.4254 11.9599 45.2856 10.7399 41.2197C10.457 40.2301 10.1028 40.0004 9.81995 39.0107C9.41328 37.6319 9.30761 36.2347 9.4137 34.7852C9.57285 32.6463 9.97978 30.5427 10.5455 28.4746C11.3235 25.6641 13.0738 24.9216 14.5944 24.6211C14.6296 24.6209 14.6822 24.5862 14.7174 24.5859C14.9119 24.038 15.3013 23.4899 15.8492 22.8184C16.3974 22.1643 16.6096 21.4563 17.3522 21.0674C18.2893 20.5724 19.3327 20.3959 20.3405 20.3252ZM17.1403 23.8311C16.1148 24.7503 15.8669 26.1822 15.8492 27.6494C15.8846 28.0029 16.0262 28.3566 16.1676 28.6748C16.645 29.7001 18.0418 30.9379 18.8551 31.7334C20.9061 33.7309 21.7376 33.9605 23.9655 35.7812C24.5841 36.2761 25.1323 36.8592 25.6803 37.4424C28.2264 40.1824 27.9611 39.3878 28.8805 42.499C29.2871 43.86 29.7825 45.2032 30.525 46.4229C30.5604 46.4758 30.7721 46.4054 30.9489 46.3877C31.108 45.3802 31.3026 45.1149 31.4264 44.0898C31.4794 43.6303 31.4971 43.1353 31.4264 42.6758C31.3203 41.8981 31.5327 42.2156 31.3561 41.4561C31.0201 39.9711 30.3655 38.6269 29.4108 37.4248C28.2616 35.9754 26.9353 34.7554 25.3795 33.7832C23.5585 32.6519 21.7903 31.4499 19.9869 30.2832C19.1914 29.7706 18.4308 29.1877 17.8297 28.4453C17.1578 27.6145 16.8223 26.6418 16.9283 25.5635C16.9814 24.9978 17.0694 24.4495 17.1578 23.8662L17.1403 23.8311Z" fill="#143711"/>
<path d="M37.5092 7.52832C40.1436 7.31619 42.7962 8.30579 44.8119 10.0205C46.8274 11.7175 48.2068 14.0865 48.9847 16.6143C49.0555 16.844 49.126 17.0915 49.1791 17.3213L49.1615 17.3564C50.187 21.3162 49.7444 25.6473 47.9056 29.3242C46.8448 31.4278 45.2358 33.4076 43.0258 34.2031C42.4777 34.3976 41.8766 34.5215 41.3285 34.3447C40.8688 34.1856 40.4798 33.8321 40.1615 33.4609C38.8355 31.8877 38.3751 29.8021 37.4027 27.999C36.6778 26.6555 35.6704 25.4703 34.6449 24.3213C33.1951 22.7127 31.6564 21.1393 29.8353 19.9727C29.6586 19.8666 29.4815 19.7431 29.3578 19.5664C29.2695 19.425 29.2164 19.2655 29.181 19.1064C29.1457 18.9652 29.1284 18.8239 29.0931 18.6826C28.7572 16.9149 28.9342 15.0584 29.5707 13.3613C29.8713 12.5306 30.3664 11.8412 30.7377 11.0635C30.8969 10.71 31.321 10.4096 31.6039 10.1621C31.9398 9.87928 32.2932 9.59611 32.6469 9.34863C34.079 8.34105 35.7588 7.66975 37.5092 7.52832ZM39.807 8.67578C39.365 8.55205 38.8348 8.67571 38.4105 8.87012H38.4281C38.1629 8.99386 37.8972 9.1531 37.6674 9.36523C36.2708 11.5569 35.5457 13.4483 36.182 15.9404C36.5179 17.2484 36.9072 18.1149 37.6849 19.2461C38.5336 20.4658 38.7634 21.0672 38.8695 22.499C38.9049 22.9762 38.8341 23.4536 38.8871 23.9131C38.9578 24.6201 39.0465 24.9386 39.1703 25.6279C39.2057 25.8401 39.3299 26.0174 39.4183 26.2295C39.6128 26.1235 39.8252 26.0876 39.8959 25.9639C40.6561 24.9033 41.3454 24.0368 41.2924 22.8525C41.204 20.8021 41.0447 19.5293 39.7894 17.7617C38.8171 16.4184 38.4986 15.2869 38.3041 13.7139C38.0919 12.017 38.304 10.8853 39.1879 9.36523C39.3293 9.11782 39.5596 8.88786 39.807 8.67578Z" fill="#143711"/>
<path d="M84.098 27.5469H80.9872C80.9304 27.1444 80.8144 26.7869 80.6392 26.4744C80.464 26.1572 80.2391 25.8873 79.9645 25.6648C79.6899 25.4422 79.3726 25.2718 79.0128 25.1534C78.6577 25.035 78.2718 24.9759 77.8551 24.9759C77.1023 24.9759 76.4465 25.1629 75.8878 25.5369C75.3291 25.9062 74.8958 26.446 74.5881 27.1562C74.2803 27.8617 74.1264 28.7187 74.1264 29.7273C74.1264 30.7642 74.2803 31.6354 74.5881 32.3409C74.9006 33.0464 75.3362 33.5791 75.8949 33.9389C76.4536 34.2988 77.0999 34.4787 77.8338 34.4787C78.2457 34.4787 78.6269 34.4242 78.9773 34.3153C79.3324 34.2064 79.6473 34.0478 79.9219 33.8395C80.1965 33.6264 80.4238 33.3684 80.6037 33.0653C80.7884 32.7623 80.9162 32.4167 80.9872 32.0284L84.098 32.0426C84.0175 32.7102 83.8163 33.3542 83.4943 33.9744C83.1771 34.59 82.7486 35.1416 82.2088 35.6293C81.6738 36.1122 81.0346 36.4957 80.2912 36.7798C79.5526 37.0592 78.7169 37.1989 77.7841 37.1989C76.4867 37.1989 75.3267 36.9053 74.304 36.3182C73.286 35.7311 72.4811 34.8812 71.8892 33.7685C71.3021 32.6558 71.0085 31.3087 71.0085 29.7273C71.0085 28.1411 71.3068 26.7917 71.9034 25.679C72.5 24.5663 73.3097 23.7187 74.3324 23.1364C75.3551 22.5492 76.5057 22.2557 77.7841 22.2557C78.6269 22.2557 79.4081 22.3741 80.1278 22.6108C80.8523 22.8475 81.4938 23.1932 82.0526 23.6477C82.6113 24.0975 83.0658 24.6491 83.4162 25.3026C83.7713 25.956 83.9986 26.7041 84.098 27.5469ZM89.3572 37.206C88.6612 37.206 88.041 37.0852 87.4964 36.8438C86.9519 36.5975 86.5211 36.2353 86.2038 35.7571C85.8913 35.2741 85.7351 34.6728 85.7351 33.9531C85.7351 33.3471 85.8464 32.8381 86.0689 32.4261C86.2914 32.0142 86.5945 31.6828 86.978 31.4318C87.3615 31.1809 87.7971 30.9915 88.2848 30.8636C88.7772 30.7358 89.2933 30.6458 89.8331 30.5938C90.4676 30.5275 90.9789 30.4659 91.3672 30.4091C91.7554 30.3475 92.0372 30.2576 92.2124 30.1392C92.3875 30.0208 92.4751 29.8456 92.4751 29.6136V29.571C92.4751 29.1212 92.3331 28.7732 92.049 28.527C91.7696 28.2808 91.3719 28.1577 90.8558 28.1577C90.3113 28.1577 89.8781 28.2784 89.5561 28.5199C89.2341 28.7566 89.0211 29.0549 88.9169 29.4148L86.1186 29.1875C86.2607 28.5246 86.54 27.9517 86.9567 27.4688C87.3733 26.9811 87.9107 26.607 88.5689 26.3466C89.2318 26.0814 89.9988 25.9489 90.87 25.9489C91.4761 25.9489 92.0561 26.0199 92.6101 26.1619C93.1688 26.304 93.6636 26.5241 94.0945 26.8224C94.5301 27.1207 94.8733 27.5043 95.1243 27.973C95.3752 28.437 95.5007 28.9934 95.5007 29.642V37H92.6314V35.4872H92.5462C92.371 35.8281 92.1366 36.1288 91.843 36.3892C91.5495 36.6449 91.1967 36.8461 90.7848 36.9929C90.3729 37.1349 89.897 37.206 89.3572 37.206ZM90.2237 35.1179C90.6688 35.1179 91.0618 35.0303 91.4027 34.8551C91.7436 34.6752 92.0111 34.4337 92.2053 34.1307C92.3994 33.8277 92.4964 33.4844 92.4964 33.1009V31.9432C92.4018 32.0047 92.2715 32.0616 92.1058 32.1136C91.9448 32.161 91.7625 32.206 91.5589 32.2486C91.3554 32.2865 91.1518 32.322 90.9482 32.3551C90.7446 32.3835 90.5599 32.4096 90.3942 32.4332C90.0391 32.4853 89.7289 32.5682 89.4638 32.6818C89.1986 32.7955 88.9927 32.9493 88.8459 33.1435C88.6991 33.3329 88.6257 33.5696 88.6257 33.8537C88.6257 34.2656 88.7749 34.5805 89.0732 34.7983C89.3762 35.0114 89.7597 35.1179 90.2237 35.1179ZM89.9325 24.6847L87.7663 21.4531H90.5575L92.0703 24.6847H89.9325ZM102.477 41.0909V26.0909H105.46V27.9233H105.595C105.727 27.6297 105.919 27.3314 106.17 27.0284C106.426 26.7206 106.757 26.465 107.164 26.2614C107.576 26.053 108.088 25.9489 108.699 25.9489C109.494 25.9489 110.228 26.1572 110.9 26.5739C111.573 26.9858 112.11 27.6084 112.512 28.4418C112.915 29.2704 113.116 30.3097 113.116 31.5597C113.116 32.7765 112.92 33.804 112.527 34.642C112.138 35.4754 111.608 36.1075 110.936 36.5384C110.268 36.9645 109.52 37.1776 108.691 37.1776C108.104 37.1776 107.605 37.0805 107.193 36.8864C106.786 36.6922 106.452 36.4484 106.191 36.1548C105.931 35.8565 105.732 35.5559 105.595 35.2528H105.502V41.0909H102.477ZM105.439 31.5455C105.439 32.1941 105.529 32.7599 105.708 33.2429C105.888 33.7259 106.149 34.1023 106.49 34.3722C106.831 34.6373 107.245 34.7699 107.733 34.7699C108.225 34.7699 108.642 34.6349 108.983 34.3651C109.324 34.0904 109.582 33.7116 109.757 33.2287C109.937 32.741 110.027 32.1799 110.027 31.5455C110.027 30.9157 109.939 30.3617 109.764 29.8835C109.589 29.4053 109.331 29.0312 108.99 28.7614C108.649 28.4915 108.23 28.3565 107.733 28.3565C107.24 28.3565 106.824 28.4867 106.483 28.7472C106.146 29.0076 105.888 29.3769 105.708 29.8551C105.529 30.3333 105.439 30.8968 105.439 31.5455ZM118.159 30.6932V37H115.133V22.4545H118.074V28.0156H118.201C118.448 27.3717 118.845 26.8674 119.395 26.5028C119.944 26.1335 120.633 25.9489 121.461 25.9489C122.219 25.9489 122.879 26.1146 123.443 26.446C124.011 26.7727 124.451 27.2438 124.764 27.8594C125.081 28.4702 125.237 29.2017 125.233 30.054V37H122.207V30.5938C122.212 29.9214 122.041 29.3982 121.696 29.0241C121.355 28.6501 120.877 28.4631 120.261 28.4631C119.849 28.4631 119.484 28.5507 119.167 28.7259C118.855 28.901 118.609 29.1567 118.429 29.4929C118.253 29.8243 118.163 30.2244 118.159 30.6932ZM132.585 37.2131C131.463 37.2131 130.497 36.9858 129.688 36.5312C128.883 36.072 128.262 35.4233 127.827 34.5852C127.391 33.7424 127.173 32.7457 127.173 31.5952C127.173 30.473 127.391 29.4882 127.827 28.6406C128.262 27.7931 128.875 27.1326 129.666 26.6591C130.462 26.1856 131.394 25.9489 132.464 25.9489C133.184 25.9489 133.854 26.0649 134.474 26.2969C135.099 26.5241 135.644 26.8674 136.108 27.3267C136.577 27.786 136.941 28.3636 137.202 29.0597C137.462 29.7509 137.592 30.5606 137.592 31.4886V32.3196H128.381V30.4446H134.744C134.744 30.009 134.65 29.6231 134.46 29.2869C134.271 28.9508 134.008 28.688 133.672 28.4986C133.34 28.3045 132.955 28.2074 132.514 28.2074C132.055 28.2074 131.648 28.3139 131.293 28.527C130.942 28.7353 130.668 29.017 130.469 29.3722C130.27 29.7225 130.168 30.1132 130.163 30.544V32.3267C130.163 32.8665 130.263 33.3329 130.462 33.7259C130.665 34.1188 130.952 34.4219 131.321 34.6349C131.69 34.848 132.128 34.9545 132.635 34.9545C132.971 34.9545 133.279 34.9072 133.558 34.8125C133.838 34.7178 134.077 34.5758 134.276 34.3864C134.474 34.197 134.626 33.965 134.73 33.6903L137.528 33.875C137.386 34.5473 137.095 35.1345 136.655 35.6364C136.219 36.1335 135.656 36.5218 134.964 36.8011C134.278 37.0758 133.485 37.2131 132.585 37.2131ZM133.821 24.7841L132.393 23.0511L130.966 24.7841H128.388V24.6847L131.264 21.5597H133.516L136.399 24.6847V24.7841H133.821Z" fill="#143711"/>
</g>
</svg>
