<svg width="179" height="60" viewBox="0 0 179 60" fill="none" xmlns="http://www.w3.org/2000/svg">
<g opacity="0.6">
<path d="M46.1153 43.2695C46.1153 43.2695 46.1153 43.1982 46.1153 43.1625C46.0068 43.1625 45.9344 43.1625 45.8259 43.2338C45.0301 43.2338 44.1981 43.2695 43.4023 43.3051C42.498 43.3051 41.5936 43.3051 40.6893 43.0913C39.2785 42.6992 37.8677 42.2003 36.6378 41.4162C34.7206 40.24 32.8758 38.9926 31.248 37.4957C29.801 36.177 28.3541 34.894 26.9795 33.504C25.6411 32.1497 24.0856 31.1161 22.4578 30.1538C20.6853 29.1202 18.8042 28.4074 16.7424 28.2648C14.7166 28.1223 12.6909 28.1223 10.6652 28.3361C10.4843 28.3361 10.2673 28.4074 10.0864 28.443C9.90554 28.0154 9.65233 27.5877 9.39911 27.16C8.89268 26.3046 8.20538 25.6275 7.33721 25.1285C6.86696 24.879 6.43288 24.6295 5.96262 24.38C4.91358 23.8098 3.97307 23.097 3.21342 22.206C2.99638 21.9565 2.77934 21.707 2.59847 21.4932C2.3332 21.4932 2.09204 21.5644 1.875 21.707C1.91117 22.3842 2.30908 22.9188 2.67082 23.4534C3.46664 24.5939 4.40715 25.5562 5.42001 26.4828C5.89027 26.9105 6.3967 27.3738 6.75844 27.9084C7.51808 28.9777 8.27773 30.0469 8.85651 31.1874C9.25442 31.9358 9.6885 32.6486 10.1226 33.3971C10.8461 34.6445 11.4972 35.8919 12.1121 37.2106C13.5952 40.347 15.006 43.9823 17.6829 46.2989C18.0808 46.6553 18.7681 47.0117 19.166 47.4038C21.0832 49.2571 23.3621 50.5045 25.8219 51.5024C26.3645 51.7163 26.9433 51.8945 27.5221 52.0014C30.4521 52.5716 33.3822 52.7142 36.3484 52.1083C38.7359 51.645 40.834 50.7183 42.7512 49.2571C44.4152 48.0096 45.5365 45.8356 46.1877 43.8397C46.26 43.8041 46.3324 43.7684 46.4047 43.7328C46.5132 43.6615 46.5494 43.5189 46.6217 43.3764C46.4771 43.3764 46.3685 43.3407 46.2238 43.3051L46.1153 43.2695Z" fill="#143711"/>
<path d="M12.1842 30.439C12.4013 30.439 12.6183 30.3677 12.763 30.439C13.2695 30.6172 13.7397 30.7954 14.21 31.0092C16.4889 32.0784 18.4785 33.5397 20.2871 35.2861C21.083 36.0701 21.9149 36.783 22.7831 37.4958C24.8088 39.2065 27.0878 40.4539 29.6561 41.1667C30.7413 41.4519 31.7542 41.8795 32.8032 42.2359C33.0564 42.3072 33.2735 42.4141 33.382 42.7349C33.2373 42.8418 33.0564 42.9844 32.8755 43.02C31.3201 43.4121 29.8008 43.4477 28.2092 42.9131C25.7855 42.0934 23.6874 40.846 21.8426 39.0996C20.9021 38.2086 20.0339 37.2463 19.1296 36.284C18.7678 35.8919 18.4423 35.4999 18.0805 35.1079C16.8145 33.6822 15.3313 32.5061 13.6674 31.5438C13.2333 31.2943 12.763 31.0448 12.3289 30.7597C12.2566 30.7241 12.2204 30.5815 12.1481 30.4033L12.1842 30.439Z" fill="white"/>
<path d="M6.64972 45.5505C7.62641 45.6218 8.13284 46.2633 8.56692 47.0118C8.67544 47.2256 8.74779 47.5107 8.82014 47.7246C8.42223 49.2927 7.2285 49.8274 5.63686 50.0412C5.34747 50.0056 4.98574 49.9343 4.58783 49.863C3.82818 49.6848 3.35792 49.1858 3.03236 48.5087C2.81532 48.0097 2.74297 47.5107 2.77915 47.0118C2.92384 45.6218 4.18992 44.4456 5.8539 44.8733C6.25181 44.9803 6.5412 45.2297 6.64972 45.6574C6.21564 45.5505 5.74538 45.4792 5.38364 45.4079C5.20278 45.4436 5.05808 45.4792 4.94956 45.5149C3.9367 45.9069 3.53879 46.6554 3.79201 47.6533C3.97288 48.3305 4.51548 48.7581 5.20278 48.8294C5.74538 48.8294 6.25181 48.8294 6.72207 48.5443C7.01146 48.4017 7.26467 48.1879 7.26467 47.7959C7.11998 47.4751 6.97529 47.1187 6.86676 46.7266C6.75824 46.3702 6.6859 45.9782 6.57737 45.6218L6.64972 45.5505Z" fill="#143711"/>
<path d="M29.8373 17.074C30.0182 17.0383 30.1991 16.9671 30.4161 16.9314C30.9587 17.1096 31.1758 17.5729 31.3205 18.1432C30.9949 19.1768 30.1991 19.7827 29.1862 20.1391C28.4627 20.3885 27.7031 20.0678 27.4137 19.355C26.9796 18.3214 27.0882 17.3591 27.6669 16.3968C27.884 16.0404 28.2457 15.8622 28.6436 15.8266C29.0415 15.7909 29.4394 15.8266 29.7288 16.1473C29.9459 16.4325 29.9097 16.7532 29.9097 17.074C29.6926 16.9671 29.4394 16.8245 29.2224 16.7532C29.1139 16.7532 28.9692 16.7889 28.8607 16.8245C28.5713 17.0383 28.4989 17.3591 28.4266 17.6799C28.4627 18.0006 28.5351 18.3214 28.8968 18.464C29.6565 18.1076 29.7288 18.0363 29.9459 17.4304C29.9459 17.3235 29.9459 17.1809 29.9097 17.074H29.8373Z" fill="#143711"/>
<path d="M15.0063 15.1844C15.1148 15.4339 15.2233 15.6477 15.2595 15.8972C15.4042 16.7526 14.8254 17.608 13.9573 17.7862C12.9806 18 12.0762 17.6436 11.5698 16.8239C11.1719 16.1467 11.1719 15.4695 11.5698 14.7924C11.8592 14.2221 12.6912 13.937 13.27 14.1865C13.4508 14.2578 13.6317 14.329 13.8126 14.436C14.2105 14.6498 14.6084 14.8993 15.0063 15.1488V15.1844ZM12.6912 14.9349C12.1486 15.4339 12.1124 15.719 12.4018 16.1111C12.5827 16.3962 12.8359 16.5744 13.1976 16.6457C13.5232 16.717 13.8487 16.6457 14.1019 16.2536C14.1019 15.9329 14.1743 15.5408 13.9211 15.1131C13.6317 14.9706 13.27 14.8636 12.7273 14.8636L12.6912 14.9349Z" fill="#143711"/>
<path d="M54.1821 49.6836C53.748 50.04 53.4587 50.2895 53.1693 50.539C52.5905 50.9667 51.9394 50.9667 51.2882 50.7528C50.8903 50.6103 50.6371 50.3251 50.5286 49.9331C50.1307 48.6144 51.0712 47.4026 52.4458 47.4383C52.8799 47.4383 53.2416 47.6165 53.4225 47.9729C53.6757 48.4718 53.8927 49.0421 54.1821 49.7193V49.6836ZM51.5776 49.149C51.7223 49.2203 51.867 49.3628 52.0479 49.3628C52.5181 49.3628 52.916 49.1846 53.0969 48.6857C52.9884 48.3293 52.7352 48.1154 52.3734 48.1867C51.9032 48.2936 51.5414 48.5431 51.5776 49.149Z" fill="#143711"/>
<path d="M53.0606 32.5415C52.9521 32.8266 52.8436 33.0761 52.6989 33.3612C52.9521 33.6463 53.4586 33.682 53.35 34.3235C53.2415 34.4304 53.0968 34.6443 52.8798 34.7868C52.4095 35.1076 51.8307 35.0363 51.469 34.6443C51.1434 34.2522 51.0711 33.5038 51.3967 33.0048C51.686 32.5415 52.084 32.2207 52.6989 32.3633C52.8074 32.3633 52.9159 32.4702 53.0606 32.5415Z" fill="#143711"/>
<path d="M49.6243 29.8315C45.7537 31.8273 40.617 32.1125 38.519 32.1481C38.1211 32.1481 37.7593 31.8273 37.7955 31.3997C37.9402 28.4415 32.1163 20.3868 36.0953 13.2587C39.2786 7.59184 44.6323 9.65899 47.3453 11.2628C47.5624 11.3697 47.7071 11.5479 47.8156 11.7618C47.8879 11.8687 47.9241 11.9756 47.9965 12.0825C48.937 14.0071 49.2625 16.0386 49.1178 18.1058C48.5029 22.2401 45.3558 27.5148 41.5576 29.5463L41.6299 29.7246C43.6556 29.0117 45.3196 27.6218 46.7304 26.0892C48.5029 24.0934 49.9137 21.7767 50.7095 19.2463L50.9627 18.4622C50.9989 18.1771 51.1436 17.4642 51.1797 17.2148C51.3244 15.6466 50.9265 14.0784 50.1307 12.6884C49.9498 12.3677 50.1307 11.94 50.5648 11.9043C53.9289 11.6549 58.1974 15.1833 57.8719 19.6027C57.6186 22.9529 54.6162 27.301 49.6604 29.8671L49.6243 29.8315Z" fill="#143711"/>
<path d="M50.2391 9.19642C50.022 9.37462 49.8411 9.6241 49.6965 9.83794C49.6603 9.90922 49.5879 9.94487 49.5518 9.98051C49.4432 10.1231 49.2985 10.23 49.1177 10.3013V10.3725C49.1177 10.3725 49.1538 10.4082 49.19 10.4438C49.4071 10.4082 49.5879 10.3369 49.7688 10.1943C49.9135 10.0874 50.0582 10.0161 50.1667 9.90923C50.2391 9.83794 50.2752 9.8023 50.3838 9.76666C50.4923 9.83794 50.6008 9.83794 50.7455 9.87358C50.9625 9.87358 51.2157 9.9805 51.4328 10.0518C51.6498 10.1587 51.8669 10.23 52.0839 10.3369C52.8074 10.6577 53.567 10.8359 54.3628 10.9072C54.7246 10.9072 55.0863 10.9072 55.4119 10.8359C56.063 10.6933 56.6418 10.4082 57.1844 10.0161C57.4014 9.83794 57.5823 9.65974 57.727 9.41026C57.727 9.37462 57.7993 9.30334 57.7993 9.30334C57.9079 9.16078 58.0887 9.12513 58.1249 8.98257C57.9802 8.84001 57.9802 8.84001 57.8717 8.80437C57.5823 8.76873 57.2206 8.44797 56.9673 8.30541C56.895 8.26977 56.8226 8.23412 56.7503 8.19848C56.4609 8.02028 56.1354 7.87772 55.8098 7.80644C55.5566 7.73516 55.2672 7.66388 55.014 7.5926C54.6161 7.48568 54.182 7.48567 53.7841 7.52132C53.4223 7.55696 53.0968 7.66388 52.735 7.7708C52.1201 7.949 51.5775 8.23413 50.9987 8.51925C50.7093 8.66181 50.5284 8.94693 50.2752 9.16077L50.2391 9.19642Z" fill="#143711"/>
<path d="M70.7102 24.9901V22.4545H82.6562V24.9901H78.2031V37H75.1634V24.9901H70.7102ZM83.4339 37V26.0909H86.3672V27.9943H86.4808C86.6797 27.3172 87.0135 26.8059 87.4822 26.4602C87.951 26.1098 88.4908 25.9347 89.1016 25.9347C89.2531 25.9347 89.4164 25.9441 89.5916 25.9631C89.7668 25.982 89.9207 26.008 90.0533 26.0412V28.7259C89.9112 28.6832 89.7147 28.6454 89.4638 28.6122C89.2128 28.5791 88.9832 28.5625 88.7749 28.5625C88.3298 28.5625 87.9321 28.6596 87.5817 28.8537C87.236 29.0431 86.9614 29.3082 86.7578 29.6491C86.5589 29.9901 86.4595 30.383 86.4595 30.8281V37H83.4339ZM94.4158 37.206C93.7198 37.206 93.0996 37.0852 92.555 36.8438C92.0105 36.5975 91.5797 36.2353 91.2624 35.7571C90.9499 35.2741 90.7937 34.6728 90.7937 33.9531C90.7937 33.3471 90.9049 32.8381 91.1275 32.4261C91.35 32.0142 91.6531 31.6828 92.0366 31.4318C92.4201 31.1809 92.8557 30.9915 93.3434 30.8636C93.8358 30.7358 94.3519 30.6458 94.8917 30.5938C95.5262 30.5275 96.0375 30.4659 96.4258 30.4091C96.814 30.3475 97.0958 30.2576 97.271 30.1392C97.4461 30.0208 97.5337 29.8456 97.5337 29.6136V29.571C97.5337 29.1212 97.3917 28.7732 97.1076 28.527C96.8282 28.2808 96.4305 28.1577 95.9144 28.1577C95.3699 28.1577 94.9367 28.2784 94.6147 28.5199C94.2927 28.7566 94.0797 29.0549 93.9755 29.4148L91.1772 29.1875C91.3192 28.5246 91.5986 27.9517 92.0153 27.4688C92.4319 26.9811 92.9693 26.607 93.6275 26.3466C94.2904 26.0814 95.0574 25.9489 95.9286 25.9489C96.5347 25.9489 97.1147 26.0199 97.6687 26.1619C98.2274 26.304 98.7222 26.5241 99.1531 26.8224C99.5887 27.1207 99.9319 27.5043 100.183 27.973C100.434 28.437 100.559 28.9934 100.559 29.642V37H97.69V35.4872H97.6048C97.4296 35.8281 97.1952 36.1288 96.9016 36.3892C96.6081 36.6449 96.2553 36.8461 95.8434 36.9929C95.4315 37.1349 94.9556 37.206 94.4158 37.206ZM95.2823 35.1179C95.7274 35.1179 96.1204 35.0303 96.4613 34.8551C96.8022 34.6752 97.0697 34.4337 97.2638 34.1307C97.458 33.8277 97.555 33.4844 97.555 33.1009V31.9432C97.4603 32.0047 97.3301 32.0616 97.1644 32.1136C97.0034 32.161 96.8211 32.206 96.6175 32.2486C96.4139 32.2865 96.2103 32.322 96.0067 32.3551C95.8031 32.3835 95.6185 32.4096 95.4528 32.4332C95.0977 32.4853 94.7875 32.5682 94.5224 32.6818C94.2572 32.7955 94.0513 32.9493 93.9045 33.1435C93.7577 33.3329 93.6843 33.5696 93.6843 33.8537C93.6843 34.2656 93.8335 34.5805 94.1317 34.7983C94.4348 35.0114 94.8183 35.1179 95.2823 35.1179ZM94.9911 24.6847L92.8249 21.4531H95.6161L97.1289 24.6847H94.9911ZM113.338 26.0909V28.3636H106.768V26.0909H113.338ZM108.26 23.4773H111.286V33.6477C111.286 33.9271 111.328 34.1449 111.413 34.3011C111.499 34.4527 111.617 34.5592 111.768 34.6207C111.925 34.6823 112.105 34.7131 112.308 34.7131C112.45 34.7131 112.592 34.7012 112.734 34.6776C112.876 34.6491 112.985 34.6278 113.061 34.6136L113.537 36.8651C113.385 36.9124 113.172 36.9669 112.898 37.0284C112.623 37.0947 112.289 37.1349 111.896 37.1491C111.167 37.1776 110.528 37.0805 109.979 36.858C109.434 36.6354 109.01 36.2898 108.707 35.821C108.404 35.3523 108.255 34.7604 108.26 34.0455V23.4773ZM115.309 37V26.0909H118.242V27.9943H118.356C118.555 27.3172 118.888 26.8059 119.357 26.4602C119.826 26.1098 120.366 25.9347 120.977 25.9347C121.128 25.9347 121.291 25.9441 121.467 25.9631C121.642 25.982 121.796 26.008 121.928 26.0412V28.7259C121.786 28.6832 121.59 28.6454 121.339 28.6122C121.088 28.5791 120.858 28.5625 120.65 28.5625C120.205 28.5625 119.807 28.6596 119.457 28.8537C119.111 29.0431 118.836 29.3082 118.633 29.6491C118.434 29.9901 118.335 30.383 118.335 30.8281V37H115.309ZM126.291 37.206C125.595 37.206 124.975 37.0852 124.43 36.8438C123.886 36.5975 123.455 36.2353 123.137 35.7571C122.825 35.2741 122.669 34.6728 122.669 33.9531C122.669 33.3471 122.78 32.8381 123.002 32.4261C123.225 32.0142 123.528 31.6828 123.912 31.4318C124.295 31.1809 124.731 30.9915 125.218 30.8636C125.711 30.7358 126.227 30.6458 126.767 30.5938C127.401 30.5275 127.913 30.4659 128.301 30.4091C128.689 30.3475 128.971 30.2576 129.146 30.1392C129.321 30.0208 129.409 29.8456 129.409 29.6136V29.571C129.409 29.1212 129.267 28.7732 128.983 28.527C128.703 28.2808 128.306 28.1577 127.789 28.1577C127.245 28.1577 126.812 28.2784 126.49 28.5199C126.168 28.7566 125.955 29.0549 125.85 29.4148L123.052 29.1875C123.194 28.5246 123.474 27.9517 123.89 27.4688C124.307 26.9811 124.844 26.607 125.502 26.3466C126.165 26.0814 126.932 25.9489 127.804 25.9489C128.41 25.9489 128.99 26.0199 129.544 26.1619C130.102 26.304 130.597 26.5241 131.028 26.8224C131.464 27.1207 131.807 27.5043 132.058 27.973C132.309 28.437 132.434 28.9934 132.434 29.642V37H129.565V35.4872H129.48C129.305 35.8281 129.07 36.1288 128.777 36.3892C128.483 36.6449 128.13 36.8461 127.718 36.9929C127.306 37.1349 126.831 37.206 126.291 37.206ZM127.157 35.1179C127.602 35.1179 127.995 35.0303 128.336 34.8551C128.677 34.6752 128.945 34.4337 129.139 34.1307C129.333 33.8277 129.43 33.4844 129.43 33.1009V31.9432C129.335 32.0047 129.205 32.0616 129.039 32.1136C128.878 32.161 128.696 32.206 128.493 32.2486C128.289 32.2865 128.085 32.322 127.882 32.3551C127.678 32.3835 127.493 32.4096 127.328 32.4332C126.973 32.4853 126.663 32.5682 126.397 32.6818C126.132 32.7955 125.926 32.9493 125.779 33.1435C125.633 33.3329 125.559 33.5696 125.559 33.8537C125.559 34.2656 125.708 34.5805 126.007 34.7983C126.31 35.0114 126.693 35.1179 127.157 35.1179ZM126.831 24.6847L128.336 21.4531H131.135L128.968 24.6847H126.831ZM134.782 37V26.0909H137.807V37H134.782ZM136.301 24.6847C135.852 24.6847 135.466 24.5355 135.144 24.2372C134.827 23.9342 134.668 23.572 134.668 23.1506C134.668 22.7339 134.827 22.3764 135.144 22.0781C135.466 21.7751 135.852 21.6236 136.301 21.6236C136.751 21.6236 137.135 21.7751 137.452 22.0781C137.774 22.3764 137.935 22.7339 137.935 23.1506C137.935 23.572 137.774 23.9342 137.452 24.2372C137.135 24.5355 136.751 24.6847 136.301 24.6847ZM149.789 37.2131C148.671 37.2131 147.71 36.9763 146.905 36.5028C146.105 36.0246 145.489 35.3617 145.059 34.5142C144.632 33.6667 144.419 32.6913 144.419 31.5881C144.419 30.4706 144.635 29.4905 145.066 28.6477C145.501 27.8002 146.119 27.1397 146.919 26.6662C147.72 26.188 148.671 25.9489 149.775 25.9489C150.726 25.9489 151.56 26.1217 152.275 26.4673C152.989 26.813 153.555 27.2983 153.972 27.9233C154.389 28.5483 154.618 29.2822 154.661 30.125H151.806C151.725 29.5805 151.512 29.1425 151.167 28.8111C150.826 28.4749 150.378 28.3068 149.824 28.3068C149.355 28.3068 148.946 28.4347 148.596 28.6903C148.25 28.9413 147.98 29.3082 147.786 29.7912C147.592 30.2741 147.495 30.8589 147.495 31.5455C147.495 32.2415 147.589 32.8333 147.779 33.321C147.973 33.8087 148.245 34.1804 148.596 34.4361C148.946 34.6918 149.355 34.8196 149.824 34.8196C150.17 34.8196 150.48 34.7486 150.755 34.6065C151.034 34.4645 151.264 34.2585 151.444 33.9886C151.628 33.714 151.749 33.3849 151.806 33.0014H154.661C154.614 33.8348 154.386 34.5687 153.979 35.2031C153.577 35.8329 153.02 36.3253 152.31 36.6804C151.6 37.0355 150.759 37.2131 149.789 37.2131ZM159.709 37.206C159.013 37.206 158.393 37.0852 157.848 36.8438C157.304 36.5975 156.873 36.2353 156.555 35.7571C156.243 35.2741 156.087 34.6728 156.087 33.9531C156.087 33.3471 156.198 32.8381 156.42 32.4261C156.643 32.0142 156.946 31.6828 157.33 31.4318C157.713 31.1809 158.149 30.9915 158.636 30.8636C159.129 30.7358 159.645 30.6458 160.185 30.5938C160.819 30.5275 161.33 30.4659 161.719 30.4091C162.107 30.3475 162.389 30.2576 162.564 30.1392C162.739 30.0208 162.827 29.8456 162.827 29.6136V29.571C162.827 29.1212 162.685 28.7732 162.401 28.527C162.121 28.2808 161.723 28.1577 161.207 28.1577C160.663 28.1577 160.23 28.2784 159.908 28.5199C159.586 28.7566 159.373 29.0549 159.268 29.4148L156.47 29.1875C156.612 28.5246 156.892 27.9517 157.308 27.4688C157.725 26.9811 158.262 26.607 158.92 26.3466C159.583 26.0814 160.35 25.9489 161.222 25.9489C161.828 25.9489 162.408 26.0199 162.962 26.1619C163.52 26.304 164.015 26.5241 164.446 26.8224C164.882 27.1207 165.225 27.5043 165.476 27.973C165.727 28.437 165.852 28.9934 165.852 29.642V37H162.983V35.4872H162.898C162.723 35.8281 162.488 36.1288 162.195 36.3892C161.901 36.6449 161.548 36.8461 161.136 36.9929C160.724 37.1349 160.249 37.206 159.709 37.206ZM160.575 35.1179C161.02 35.1179 161.413 35.0303 161.754 34.8551C162.095 34.6752 162.363 34.4337 162.557 34.1307C162.751 33.8277 162.848 33.4844 162.848 33.1009V31.9432C162.753 32.0047 162.623 32.0616 162.457 32.1136C162.296 32.161 162.114 32.206 161.911 32.2486C161.707 32.2865 161.503 32.322 161.3 32.3551C161.096 32.3835 160.911 32.4096 160.746 32.4332C160.391 32.4853 160.08 32.5682 159.815 32.6818C159.55 32.7955 159.344 32.9493 159.197 33.1435C159.051 33.3329 158.977 33.5696 158.977 33.8537C158.977 34.2656 159.126 34.5805 159.425 34.7983C159.728 35.0114 160.111 35.1179 160.575 35.1179ZM162.763 24.7841L161.335 23.0511L159.908 24.7841H157.33V24.6847L160.206 21.5597H162.457L165.341 24.6847V24.7841H162.763ZM169.677 41.0909C169.293 41.0909 168.933 41.0601 168.597 40.9986C168.266 40.9418 167.991 40.8684 167.773 40.7784L168.455 38.5199C168.81 38.6288 169.13 38.688 169.414 38.6974C169.703 38.7069 169.951 38.6406 170.16 38.4986C170.373 38.3565 170.546 38.1151 170.678 37.7741L170.856 37.3125L166.942 26.0909H170.124L172.383 34.1023H172.496L174.776 26.0909H177.979L173.739 38.179C173.536 38.7661 173.259 39.2775 172.908 39.7131C172.563 40.1534 172.125 40.492 171.594 40.7287C171.064 40.9702 170.425 41.0909 169.677 41.0909Z" fill="#143711"/>
</g>
</svg>
