<svg width="136" height="60" viewBox="0 0 136 60" fill="none" xmlns="http://www.w3.org/2000/svg">
<g opacity="0.6">
<path d="M41.2844 39.4819C37.947 38.1651 34.4113 37.5666 30.8095 37.5067C26.3485 37.417 22.0858 38.225 17.9884 39.841C17.8562 39.9009 17.724 39.9308 17.6249 39.9907C17.9884 44.33 18.2197 48.1307 18.3518 50.3752C18.4179 51.5723 19.5084 52.5 20.8302 52.5H39.1696C40.4914 52.5 41.5818 51.5723 41.6479 50.3752C41.7801 48.1008 42.0114 44.2402 42.3749 39.841C42.0444 39.7213 41.681 39.6016 41.3505 39.452L41.2844 39.4819Z" fill="#143711"/>
<path d="M46.0053 19.1509H43.8311C43.2291 12.7271 37.041 7.37914 29.9833 7.50208C22.9255 7.37914 16.7375 12.7271 16.1354 19.1509H13.9612C13.4929 19.1509 13.125 19.489 13.125 19.9193V22.04C13.125 22.4703 13.4929 22.8084 13.9612 22.8084H15.6337V22.8699C16.403 27.3573 16.9716 32.6745 17.373 37.5C18.2761 37.1312 19.2127 36.7623 20.1827 36.455C24.2301 35.1641 28.4112 34.7031 32.6926 35.0412C35.1679 35.2256 37.6096 35.6559 39.9511 36.4243C40.4194 36.5779 40.9545 36.6701 41.4228 36.8238C41.8242 36.9775 42.2256 37.1004 42.627 37.2541C43.0618 32.4901 43.597 27.2651 44.3663 22.8391C44.3663 22.8391 44.3663 22.8084 44.3663 22.7777H46.0388C46.5071 22.7777 46.875 22.4396 46.875 22.0093V19.8885C46.875 19.4582 46.5071 19.1201 46.0388 19.1201L46.0053 19.1509ZM29.9498 7.96311C36.74 7.90164 42.5266 12.973 42.8277 19.1509H41.8911C41.8242 18.6591 41.5566 18.0444 41.4563 17.86C40.6869 16.3847 39.0145 15.6163 37.342 15.3397C37.5093 14.9094 37.6096 14.4483 37.6096 13.9565C37.6765 13.4648 37.4089 10.3605 36.4055 11.2211C33.9637 13.9873 29.8495 13.3726 26.3708 13.4033C24.4642 13.3418 22.5242 13.4955 21.019 14.6942C20.2831 15.2474 19.681 15.9544 19.2127 16.692C18.7444 17.4604 18.343 18.2288 18.0754 19.0894C18.0754 19.0894 18.0754 19.1201 18.0754 19.1509H17.1054C17.373 13.0037 23.1931 7.93238 29.9833 7.96311H29.9498ZM37.2751 15.4626C39.1817 16.0158 41.0549 17.2453 41.1552 19.1509H39.9511C38.5462 19.0894 37.1414 19.0279 35.7365 18.9972C34.8668 18.9972 33.9637 18.9357 33.0271 18.9357C34.9003 18.321 36.5727 17.153 37.2751 15.4626ZM32.4919 18.905C27.9763 18.8128 23.1597 18.782 18.8113 18.8435C19.4469 16.5998 21.019 14.2946 23.628 13.8029C24.5311 13.6185 25.4342 13.7107 26.3708 13.7414C29.8495 13.9566 33.9303 14.7557 36.6062 12.2354C37.3086 14.3561 36.5058 16.5998 34.432 17.8907C33.8634 18.2903 33.1944 18.5976 32.5254 18.8742L32.4919 18.905ZM45.8715 21.9171H14.0616V20.0115H45.905V21.9171H45.8715Z" fill="#143711"/>
<path d="M76.4205 37H72.6349V34.3651H76.2926C77.2017 34.3651 77.9664 34.2041 78.5866 33.8821C79.2116 33.5554 79.6804 33.0511 79.9929 32.3693C80.3101 31.6828 80.4688 30.7973 80.4688 29.7131C80.4688 28.6383 80.3101 27.7599 79.9929 27.0781C79.6804 26.3963 79.214 25.8944 78.5938 25.5724C77.9735 25.2505 77.2088 25.0895 76.2997 25.0895H72.571V22.4545H76.4631C77.9261 22.4545 79.1856 22.7457 80.2415 23.3281C81.2973 23.9058 82.1094 24.7367 82.6776 25.821C83.2505 26.9053 83.5369 28.2027 83.5369 29.7131C83.5369 31.2282 83.2505 32.5303 82.6776 33.6193C82.1094 34.7083 81.2926 35.544 80.2273 36.1264C79.1667 36.7088 77.8977 37 76.4205 37ZM74.3395 22.4545V37H71.2642V22.4545H74.3395ZM69.2472 30.2244V28.4347H76.3281V30.2244H69.2472ZM88.869 37.206C88.1729 37.206 87.5527 37.0852 87.0082 36.8438C86.4637 36.5975 86.0328 36.2353 85.7156 35.7571C85.4031 35.2741 85.2468 34.6728 85.2468 33.9531C85.2468 33.3471 85.3581 32.8381 85.5806 32.4261C85.8031 32.0142 86.1062 31.6828 86.4897 31.4318C86.8732 31.1809 87.3088 30.9915 87.7965 30.8636C88.2889 30.7358 88.805 30.6458 89.3448 30.5938C89.9793 30.5275 90.4906 30.4659 90.8789 30.4091C91.2672 30.3475 91.5489 30.2576 91.7241 30.1392C91.8993 30.0208 91.9869 29.8456 91.9869 29.6136V29.571C91.9869 29.1212 91.8448 28.7732 91.5607 28.527C91.2814 28.2808 90.8836 28.1577 90.3675 28.1577C89.823 28.1577 89.3898 28.2784 89.0678 28.5199C88.7459 28.7566 88.5328 29.0549 88.4286 29.4148L85.6303 29.1875C85.7724 28.5246 86.0517 27.9517 86.4684 27.4688C86.8851 26.9811 87.4225 26.607 88.0806 26.3466C88.7435 26.0814 89.5105 25.9489 90.3817 25.9489C90.9878 25.9489 91.5678 26.0199 92.1218 26.1619C92.6805 26.304 93.1753 26.5241 93.6062 26.8224C94.0418 27.1207 94.3851 27.5043 94.636 27.973C94.887 28.437 95.0124 28.9934 95.0124 29.642V37H92.1431V35.4872H92.0579C91.8827 35.8281 91.6483 36.1288 91.3548 36.3892C91.0612 36.6449 90.7085 36.8461 90.2965 36.9929C89.8846 37.1349 89.4087 37.206 88.869 37.206ZM89.7354 35.1179C90.1805 35.1179 90.5735 35.0303 90.9144 34.8551C91.2553 34.6752 91.5228 34.4337 91.717 34.1307C91.9111 33.8277 92.0082 33.4844 92.0082 33.1009V31.9432C91.9135 32.0047 91.7833 32.0616 91.6175 32.1136C91.4566 32.161 91.2743 32.206 91.0707 32.2486C90.8671 32.2865 90.6635 32.322 90.4599 32.3551C90.2563 32.3835 90.0716 32.4096 89.9059 32.4332C89.5508 32.4853 89.2406 32.5682 88.9755 32.6818C88.7103 32.7955 88.5044 32.9493 88.3576 33.1435C88.2108 33.3329 88.1374 33.5696 88.1374 33.8537C88.1374 34.2656 88.2866 34.5805 88.5849 34.7983C88.8879 35.0114 89.2714 35.1179 89.7354 35.1179ZM89.4087 24.6847L90.9144 21.4531H93.7127L91.5465 24.6847H89.4087ZM104.517 26.0909L106.52 29.9048L108.572 26.0909H111.676L108.516 31.5455L111.761 37H108.672L106.52 33.2287L104.403 37H101.278L104.517 31.5455L101.392 26.0909H104.517ZM116.525 37.206C115.829 37.206 115.209 37.0852 114.664 36.8438C114.12 36.5975 113.689 36.2353 113.372 35.7571C113.059 35.2741 112.903 34.6728 112.903 33.9531C112.903 33.3471 113.014 32.8381 113.237 32.4261C113.459 32.0142 113.762 31.6828 114.146 31.4318C114.529 31.1809 114.965 30.9915 115.453 30.8636C115.945 30.7358 116.461 30.6458 117.001 30.5938C117.636 30.5275 118.147 30.4659 118.535 30.4091C118.923 30.3475 119.205 30.2576 119.38 30.1392C119.556 30.0208 119.643 29.8456 119.643 29.6136V29.571C119.643 29.1212 119.501 28.7732 119.217 28.527C118.938 28.2808 118.54 28.1577 118.024 28.1577C117.479 28.1577 117.046 28.2784 116.724 28.5199C116.402 28.7566 116.189 29.0549 116.085 29.4148L113.287 29.1875C113.429 28.5246 113.708 27.9517 114.125 27.4688C114.541 26.9811 115.079 26.607 115.737 26.3466C116.4 26.0814 117.167 25.9489 118.038 25.9489C118.644 25.9489 119.224 26.0199 119.778 26.1619C120.337 26.304 120.832 26.5241 121.262 26.8224C121.698 27.1207 122.041 27.5043 122.292 27.973C122.543 28.437 122.669 28.9934 122.669 29.642V37H119.799V35.4872H119.714C119.539 35.8281 119.305 36.1288 119.011 36.3892C118.717 36.6449 118.365 36.8461 117.953 36.9929C117.541 37.1349 117.065 37.206 116.525 37.206ZM117.392 35.1179C117.837 35.1179 118.23 35.0303 118.571 34.8551C118.912 34.6752 119.179 34.4337 119.373 34.1307C119.567 33.8277 119.664 33.4844 119.664 33.1009V31.9432C119.57 32.0047 119.44 32.0616 119.274 32.1136C119.113 32.161 118.931 32.206 118.727 32.2486C118.523 32.2865 118.32 32.322 118.116 32.3551C117.913 32.3835 117.728 32.4096 117.562 32.4332C117.207 32.4853 116.897 32.5682 116.632 32.6818C116.367 32.7955 116.161 32.9493 116.014 33.1435C115.867 33.3329 115.794 33.5696 115.794 33.8537C115.794 34.2656 115.943 34.5805 116.241 34.7983C116.544 35.0114 116.928 35.1179 117.392 35.1179ZM126.493 41.0909C126.11 41.0909 125.75 41.0601 125.414 40.9986C125.082 40.9418 124.808 40.8684 124.59 40.7784L125.272 38.5199C125.627 38.6288 125.946 38.688 126.23 38.6974C126.519 38.7069 126.768 38.6406 126.976 38.4986C127.189 38.3565 127.362 38.1151 127.495 37.7741L127.672 37.3125L123.759 26.0909H126.941L129.199 34.1023H129.313L131.593 26.0909H134.796L130.556 38.179C130.352 38.7661 130.075 39.2775 129.725 39.7131C129.379 40.1534 128.941 40.492 128.411 40.7287C127.881 40.9702 127.241 41.0909 126.493 41.0909Z" fill="#143711"/>
</g>
</svg>
