<svg width="144" height="60" viewBox="0 0 144 60" fill="none" xmlns="http://www.w3.org/2000/svg">
<g opacity="0.6">
<path d="M21.3591 23.9609C19.5752 23.9609 16.8621 24.5001 14.9667 25.4346C15.3755 28.921 15.71 32.5512 16.0073 35.9657L16.1188 37.4753C16.5276 42.651 16.7878 47.2517 16.9364 49.9474C17.0108 51.3851 18.2372 52.4993 19.7239 52.4993H40.3136C41.8002 52.4993 43.0266 51.3851 43.101 49.9474C43.2496 47.2157 43.5098 42.5791 43.9186 37.2956L44.0673 35.7141C44.3646 31.9402 44.7734 27.9506 45.2566 24.1766C43.3611 24.9673 40.871 25.3268 38.0836 25.5065C32.9176 25.8659 25.4474 23.9609 21.3591 23.9609ZM34.6644 39.7397C32.5088 43.4058 26.7853 44.9154 24.3324 46.0656C28.8666 41.6806 33.2521 34.9234 34.1441 30.0712C33.9954 29.4961 30.6505 36.2892 28.6436 39.2724C27.2685 41.2493 25.5588 44.0168 24.0351 45.8859C23.8492 43.2621 22.7343 37.9426 24.8527 34.3124C27.0826 30.5744 31.7655 29.8914 34.1069 28.6335C34.4786 28.4178 34.9989 28.7053 35.0361 29.1367C35.1104 31.6886 36.9315 35.8938 34.6644 39.7038V39.7397Z" fill="#143711"/>
<path d="M47.858 14.5088H45.4794L43.4353 8.86582L43.138 8.79393C43.0637 8.79393 37.3402 7.5 30.0186 7.5C22.697 7.5 16.9735 8.79393 16.8992 8.79393L16.6018 8.86582L14.5577 14.5088H12.1791C11.6588 14.5088 11.25 14.9042 11.25 15.4073V17.8874C11.25 18.3906 11.6588 18.7859 12.1791 18.7859H14.0374V18.8578C14.2976 20.4034 14.5206 22.0567 14.7436 23.746C16.6018 23.0272 19.0176 22.0926 23.1801 22.3083C27.1568 22.524 33.1405 25.0399 37.972 24.5727C40.6851 24.3211 43.4725 23.4944 45.4051 22.8474C45.5909 21.4816 45.7768 20.1518 45.9626 18.8578C45.9626 18.8578 45.9626 18.8219 45.9626 18.7859H47.8209C48.3412 18.7859 48.75 18.3906 48.75 17.8874V15.4073C48.75 14.9042 48.3412 14.5088 47.8209 14.5088H47.858ZM17.4566 9.72843C18.6831 9.47684 23.7748 8.50639 30.0557 8.50639C36.3367 8.50639 41.4284 9.47684 42.6549 9.72843L44.2901 14.2931H15.8214L17.4566 9.72843ZM47.7465 17.7436H12.365V15.5152H47.7465V17.7436Z" fill="#143711"/>
<path d="M70.7102 24.9901V22.4545H82.6562V24.9901H78.2031V37H75.1634V24.9901H70.7102ZM83.4339 37V26.0909H86.3672V27.9943H86.4808C86.6797 27.3172 87.0135 26.8059 87.4822 26.4602C87.951 26.1098 88.4908 25.9347 89.1016 25.9347C89.2531 25.9347 89.4164 25.9441 89.5916 25.9631C89.7668 25.982 89.9207 26.008 90.0533 26.0412V28.7259C89.9112 28.6832 89.7147 28.6454 89.4638 28.6122C89.2128 28.5791 88.9832 28.5625 88.7749 28.5625C88.3298 28.5625 87.9321 28.6596 87.5817 28.8537C87.236 29.0431 86.9614 29.3082 86.7578 29.6491C86.5589 29.9901 86.4595 30.383 86.4595 30.8281V37H83.4339ZM94.4158 37.206C93.7198 37.206 93.0996 37.0852 92.555 36.8438C92.0105 36.5975 91.5797 36.2353 91.2624 35.7571C90.9499 35.2741 90.7937 34.6728 90.7937 33.9531C90.7937 33.3471 90.9049 32.8381 91.1275 32.4261C91.35 32.0142 91.6531 31.6828 92.0366 31.4318C92.4201 31.1809 92.8557 30.9915 93.3434 30.8636C93.8358 30.7358 94.3519 30.6458 94.8917 30.5938C95.5262 30.5275 96.0375 30.4659 96.4258 30.4091C96.814 30.3475 97.0958 30.2576 97.271 30.1392C97.4461 30.0208 97.5337 29.8456 97.5337 29.6136V29.571C97.5337 29.1212 97.3917 28.7732 97.1076 28.527C96.8282 28.2808 96.4305 28.1577 95.9144 28.1577C95.3699 28.1577 94.9367 28.2784 94.6147 28.5199C94.2927 28.7566 94.0797 29.0549 93.9755 29.4148L91.1772 29.1875C91.3192 28.5246 91.5986 27.9517 92.0153 27.4688C92.4319 26.9811 92.9693 26.607 93.6275 26.3466C94.2904 26.0814 95.0574 25.9489 95.9286 25.9489C96.5347 25.9489 97.1147 26.0199 97.6687 26.1619C98.2274 26.304 98.7222 26.5241 99.1531 26.8224C99.5887 27.1207 99.9319 27.5043 100.183 27.973C100.434 28.437 100.559 28.9934 100.559 29.642V37H97.69V35.4872H97.6048C97.4296 35.8281 97.1952 36.1288 96.9016 36.3892C96.6081 36.6449 96.2553 36.8461 95.8434 36.9929C95.4315 37.1349 94.9556 37.206 94.4158 37.206ZM95.2823 35.1179C95.7274 35.1179 96.1204 35.0303 96.4613 34.8551C96.8022 34.6752 97.0697 34.4337 97.2638 34.1307C97.458 33.8277 97.555 33.4844 97.555 33.1009V31.9432C97.4603 32.0047 97.3301 32.0616 97.1644 32.1136C97.0034 32.161 96.8211 32.206 96.6175 32.2486C96.4139 32.2865 96.2103 32.322 96.0067 32.3551C95.8031 32.3835 95.6185 32.4096 95.4528 32.4332C95.0977 32.4853 94.7875 32.5682 94.5224 32.6818C94.2572 32.7955 94.0513 32.9493 93.9045 33.1435C93.7577 33.3329 93.6843 33.5696 93.6843 33.8537C93.6843 34.2656 93.8335 34.5805 94.1317 34.7983C94.4348 35.0114 94.8183 35.1179 95.2823 35.1179ZM94.9911 24.6847L92.8249 21.4531H95.6161L97.1289 24.6847H94.9911ZM116.612 29.2017L113.842 29.3722C113.795 29.1354 113.693 28.9223 113.537 28.733C113.381 28.5388 113.175 28.3849 112.919 28.2713C112.668 28.1529 112.367 28.0938 112.017 28.0938C111.548 28.0938 111.153 28.1932 110.831 28.392C110.509 28.5862 110.348 28.8466 110.348 29.1733C110.348 29.4337 110.452 29.6539 110.661 29.8338C110.869 30.0137 111.226 30.1581 111.733 30.267L113.707 30.6648C114.768 30.8826 115.559 31.233 116.08 31.7159C116.6 32.1989 116.861 32.8333 116.861 33.6193C116.861 34.3343 116.65 34.9616 116.229 35.5014C115.812 36.0412 115.239 36.4626 114.51 36.7656C113.786 37.0639 112.95 37.2131 112.003 37.2131C110.559 37.2131 109.408 36.9124 108.551 36.3111C107.699 35.705 107.199 34.8812 107.053 33.8395L110.028 33.6832C110.118 34.1236 110.336 34.4598 110.682 34.6918C111.027 34.919 111.47 35.0327 112.01 35.0327C112.54 35.0327 112.966 34.9309 113.288 34.7273C113.615 34.5189 113.781 34.2514 113.786 33.9247C113.781 33.6501 113.665 33.4252 113.438 33.25C113.21 33.0701 112.86 32.9328 112.386 32.8381L110.497 32.4616C109.432 32.2486 108.639 31.8793 108.118 31.3537C107.602 30.8281 107.344 30.1581 107.344 29.3438C107.344 28.643 107.533 28.0393 107.912 27.5327C108.295 27.026 108.833 26.6354 109.524 26.3608C110.22 26.0862 111.035 25.9489 111.967 25.9489C113.345 25.9489 114.429 26.2401 115.22 26.8224C116.016 27.4048 116.48 28.1979 116.612 29.2017ZM130.3 25.4872H132.054C132.05 26.3111 131.926 27.0024 131.685 27.5611C131.444 28.1151 131.034 28.5317 130.456 28.8111C129.883 29.0904 129.1 29.2301 128.105 29.2301V27.8807C128.764 27.8807 129.247 27.7931 129.554 27.6179C129.867 27.4427 130.068 27.1799 130.158 26.8295C130.253 26.4744 130.3 26.027 130.3 25.4872ZM125.833 32.3551V26.0909H128.851V37H125.953V35.0185H125.84C125.594 35.6577 125.184 36.1714 124.611 36.5597C124.043 36.9479 123.349 37.142 122.53 37.142C121.801 37.142 121.159 36.9763 120.605 36.6449C120.051 36.3134 119.618 35.8423 119.306 35.2315C118.998 34.6207 118.842 33.8892 118.837 33.0369V26.0909H121.863V32.4972C121.863 33.1411 122.033 33.6501 122.374 34.0241C122.72 34.3982 123.179 34.5852 123.752 34.5852C124.116 34.5852 124.455 34.5024 124.767 34.3366C125.085 34.1662 125.34 33.9152 125.534 33.5838C125.733 33.2524 125.833 32.8428 125.833 32.3551ZM121.827 24.7486L120.144 24.7273C120.144 23.8229 120.366 23.1293 120.811 22.6463C121.261 22.1634 121.808 21.9195 122.452 21.9148C122.783 21.9148 123.068 21.9692 123.304 22.0781C123.546 22.1823 123.761 22.3054 123.951 22.4474C124.145 22.5895 124.329 22.715 124.505 22.8239C124.68 22.928 124.869 22.9801 125.073 22.9801C125.347 22.9754 125.556 22.8736 125.698 22.6747C125.845 22.4711 125.918 22.206 125.918 21.8793L127.573 21.929C127.563 22.8239 127.336 23.5152 126.891 24.0028C126.446 24.4858 125.904 24.7296 125.265 24.7344C124.909 24.7344 124.611 24.6823 124.37 24.5781C124.133 24.4692 123.925 24.3461 123.745 24.2088C123.565 24.0668 123.39 23.9413 123.219 23.8324C123.049 23.7235 122.857 23.669 122.644 23.669C122.398 23.669 122.199 23.7661 122.047 23.9602C121.9 24.1544 121.827 24.4171 121.827 24.7486ZM136.056 37.206C135.36 37.206 134.74 37.0852 134.196 36.8438C133.651 36.5975 133.22 36.2353 132.903 35.7571C132.591 35.2741 132.434 34.6728 132.434 33.9531C132.434 33.3471 132.546 32.8381 132.768 32.4261C132.991 32.0142 133.294 31.6828 133.677 31.4318C134.061 31.1809 134.496 30.9915 134.984 30.8636C135.476 30.7358 135.993 30.6458 136.532 30.5938C137.167 30.5275 137.678 30.4659 138.066 30.4091C138.455 30.3475 138.736 30.2576 138.912 30.1392C139.087 30.0208 139.174 29.8456 139.174 29.6136V29.571C139.174 29.1212 139.032 28.7732 138.748 28.527C138.469 28.2808 138.071 28.1577 137.555 28.1577C137.011 28.1577 136.577 28.2784 136.255 28.5199C135.933 28.7566 135.72 29.0549 135.616 29.4148L132.818 29.1875C132.96 28.5246 133.239 27.9517 133.656 27.4688C134.073 26.9811 134.61 26.607 135.268 26.3466C135.931 26.0814 136.698 25.9489 137.569 25.9489C138.175 25.9489 138.755 26.0199 139.309 26.1619C139.868 26.304 140.363 26.5241 140.794 26.8224C141.229 27.1207 141.573 27.5043 141.824 27.973C142.074 28.437 142.2 28.9934 142.2 29.642V37H139.331V35.4872H139.245C139.07 35.8281 138.836 36.1288 138.542 36.3892C138.249 36.6449 137.896 36.8461 137.484 36.9929C137.072 37.1349 136.596 37.206 136.056 37.206ZM136.923 35.1179C137.368 35.1179 137.761 35.0303 138.102 34.8551C138.443 34.6752 138.71 34.4337 138.904 34.1307C139.099 33.8277 139.196 33.4844 139.196 33.1009V31.9432C139.101 32.0047 138.971 32.0616 138.805 32.1136C138.644 32.161 138.462 32.206 138.258 32.2486C138.055 32.2865 137.851 32.322 137.647 32.3551C137.444 32.3835 137.259 32.4096 137.093 32.4332C136.738 32.4853 136.428 32.5682 136.163 32.6818C135.898 32.7955 135.692 32.9493 135.545 33.1435C135.398 33.3329 135.325 33.5696 135.325 33.8537C135.325 34.2656 135.474 34.5805 135.772 34.7983C136.075 35.0114 136.459 35.1179 136.923 35.1179Z" fill="#143711"/>
</g>
</svg>
