<svg width="150" height="60" viewBox="0 0 150 60" fill="none" xmlns="http://www.w3.org/2000/svg">
<g opacity="0.6">
<path d="M50.9295 12.3877C50.9295 11.9663 50.6515 11.8258 50.4082 11.7556C49.4003 11.5449 48.4619 11.6152 47.1411 11.861C47.0716 12.0014 47.0021 12.1068 46.9326 12.2472C47.0716 12.4228 47.2107 12.5633 47.3497 12.774C48.6009 12.8793 49.8521 13.1953 50.9643 12.3877H50.9295Z" fill="#BD946A"/>
<path d="M45.9937 17.2332C46.1327 17.163 46.3065 17.0928 46.3412 16.9874C46.515 16.4958 46.6888 16.0042 46.8626 15.3721C46.7583 14.6347 46.654 14.0377 46.5498 13.4408C46.5498 13.3003 46.4108 13.1599 46.3412 13.0545C46.3065 12.9843 46.2022 12.9141 46.1675 12.9141C46.0284 12.9492 45.8547 13.0194 45.8199 13.0896C45.5071 14.424 45.5071 15.7584 45.7504 17.0928C45.8547 17.1279 45.9242 17.1981 45.9589 17.163L45.9937 17.2332Z" fill="#143711"/>
<path d="M45.8547 11.0528C45.9242 11.1933 46.0285 11.3338 46.1328 11.3689C46.2023 11.3689 46.3761 11.2635 46.4456 11.1933C46.5846 10.9124 46.6541 10.6315 46.7584 10.3856C46.6889 9.92915 46.6194 9.47266 46.5498 9.05128C46.4803 8.55967 46.5498 7.99782 46.2718 7.54133C46.0285 7.43598 45.82 7.54133 45.7852 7.75202C45.7505 8.70013 45.7852 9.68335 45.7852 10.6315C45.7852 10.7719 45.82 10.9124 45.8895 11.0528H45.8547Z" fill="#143711"/>
<path d="M41.4403 12.4224C42.6915 12.6331 43.9427 12.6682 45.2981 12.4224C45.1244 12.2118 45.0201 12.0011 44.8463 11.9308C43.6994 11.6148 42.5177 11.5094 41.3013 11.6499C41.1622 11.6499 41.058 11.7904 40.9189 11.8606C40.9189 12.2118 41.1275 12.3873 41.4403 12.4576V12.4224Z" fill="#143711"/>
<path d="M11.2376 27.4508C12.0369 27.4508 12.7668 27.4508 13.4967 27.4508C13.9485 27.4508 14.3308 27.2752 14.6436 26.9241C14.5393 26.7836 14.4351 26.608 14.2613 26.5027C13.2186 25.9408 12.1412 26.0462 11.1333 26.5729C10.9943 26.6432 10.89 26.889 10.89 27.0294C10.89 27.1699 11.0985 27.3103 11.2376 27.4508Z" fill="#143711"/>
<path d="M10.0209 25.6244C10.4032 24.6412 10.3685 23.974 9.88188 22.5694C9.56908 22.464 9.29104 22.5694 9.29104 22.7449C9.22152 23.7984 9.18677 24.8167 9.18677 25.8702C9.18677 25.9755 9.32579 26.0458 9.36055 26.1511C9.81237 26.0809 9.91663 25.8351 9.98615 25.6244H10.0209Z" fill="#143711"/>
<path d="M9.39615 28.083C9.15286 30.0495 9.18761 30.3304 10.0565 31.4892C10.1955 31.2785 10.4736 31.1029 10.4388 30.9273C10.3693 30.0495 10.2303 29.1365 9.84797 28.2937C9.81321 28.1884 9.53517 28.1532 9.39615 28.083Z" fill="#143711"/>
<path d="M5.74609 27.4157C6.64973 27.6264 7.44911 27.7317 8.24849 27.5562C8.28324 27.5562 8.35275 27.4157 8.38751 27.3104C8.318 27.1348 8.28324 26.8187 8.21373 26.7836C7.76191 26.7134 7.27533 26.6432 6.82351 26.6783C6.47596 26.6783 6.1284 26.6783 5.67658 27.1348C5.57231 27.2401 5.64182 27.4157 5.74609 27.4157Z" fill="#143711"/>
<path d="M49.2944 22.0099C46.653 19.6221 42.9689 19.903 40.6403 21.9046C40.3623 23.1336 39.7367 24.2221 38.972 25.2054C41.2312 26.5397 42.5519 28.8222 42.6214 31.1749C43.9073 31.1749 45.1933 31.1047 46.514 31.1047C47.5567 31.1047 48.9469 31.1047 50.2676 31.0345C50.7889 30.4726 51.1712 29.7703 51.4493 28.9627C52.3182 26.5046 51.1017 23.6603 49.2944 22.0099ZM49.92 26.3642C49.92 26.4344 49.8505 26.4695 49.781 26.4695C49.7115 26.4695 49.6768 26.3993 49.6768 26.3642C49.6768 25.8023 49.5377 25.2756 49.2597 24.8542C48.6688 23.9412 47.6262 23.6954 46.6878 23.3092C46.2012 23.0633 45.7146 22.8527 45.228 22.4664C45.089 22.361 45.1238 22.1504 45.2976 22.0801C47.6609 21.3778 50.5804 23.871 49.92 26.3642Z" fill="#143711"/>
<path d="M27.1208 20.9561C27.7811 21.2721 28.4067 21.7286 28.9281 22.2202C29.9012 23.1332 30.5963 24.1515 31.0482 25.2401C33.064 23.9057 35.7749 23.6951 37.9993 24.7134C38.1731 24.7836 38.3121 24.8538 38.4511 24.9241C38.4511 24.9241 38.5206 24.9241 38.5554 24.9592C38.5554 24.9592 38.6249 24.9592 38.6596 25.0294C39.32 24.292 39.8413 23.379 40.0846 22.4309C40.1194 22.2202 40.1889 22.0095 40.1889 21.7988C40.1889 21.7286 40.1889 21.6233 40.1889 21.553C40.1889 21.4477 40.1889 21.3423 40.1889 21.2019C40.2236 18.3224 38.2773 15.5835 35.7054 14.4598C31.3262 12.5636 26.808 16.04 27.0513 20.7805C27.0513 20.8507 27.0513 20.8858 27.0513 20.9561H27.1208ZM33.7939 15.8644C36.1572 15.1621 39.0767 17.6553 38.4163 20.1484C38.4163 20.2187 38.3468 20.2538 38.2773 20.2187C38.2078 20.2187 38.1731 20.1484 38.1731 20.1133C38.1731 19.5515 38.034 19.0247 37.756 18.6034C37.1651 17.6904 36.1225 17.4446 35.1841 17.0583C34.6975 16.8125 34.2109 16.6018 33.7243 16.2155C33.5853 16.1102 33.6201 15.8995 33.7939 15.8293V15.8644Z" fill="#143711"/>
<path d="M29.6581 26.5054C29.7624 26.4001 29.8319 26.2947 29.9362 26.1894C30.0057 26.1191 30.0752 26.0489 30.1447 25.9787C30.1795 25.9436 30.2142 25.9085 30.249 25.8733C30.388 25.7329 30.5618 25.5924 30.7008 25.4871C30.4575 24.3283 29.8319 23.2397 28.8588 22.2916C28.3374 21.8 27.7466 21.4488 27.121 21.1679C27.0515 21.1679 26.982 21.0977 26.8777 21.0977C26.8082 21.0977 26.7387 21.0626 26.6692 21.0275C24.6186 20.3954 22.2552 20.9221 20.5174 22.1511C20.3784 22.2565 20.2046 22.3618 20.0656 22.5023C19.9266 22.6428 19.7528 22.8534 19.6138 22.9939C19.3705 23.2748 19.0577 23.7313 18.8144 23.9771C17.459 25.8733 17.2157 28.0154 18.2236 30.1574C18.2931 30.2627 18.3278 30.4032 18.3974 30.5085C18.9187 30.5085 19.4053 30.5085 19.7528 30.5436C22.29 30.6841 25.2442 30.8597 28.0941 31.0353C28.0941 30.6139 28.1289 30.1925 28.1984 29.7711C28.2679 29.4551 28.3722 29.1039 28.4417 28.823C28.5112 28.4367 28.6502 28.1558 28.7893 27.7696C28.9978 27.3131 29.3106 26.8917 29.6234 26.5405L29.6581 26.5054ZM28.7545 27.0321C28.685 27.0321 28.6502 26.9619 28.6502 26.8917C28.6502 26.3298 28.5112 25.8031 28.2332 25.3817C27.6423 24.4687 26.5997 24.2229 25.6613 23.8367C25.1747 23.5909 24.6881 23.3802 24.2015 23.029C24.0625 22.9237 24.0973 22.713 24.271 22.6428C25.2442 22.3618 26.3216 22.6076 27.1905 23.1695C27.3295 23.2748 27.5033 23.3802 27.6423 23.4855C28.1984 23.942 28.6155 24.539 28.8588 25.2062C28.9283 25.452 28.9978 25.6627 28.9978 25.9085C29.0325 26.2596 28.9978 26.5756 28.9283 26.9268C28.9283 26.997 28.8588 27.0321 28.7893 27.0321H28.7545Z" fill="#143711"/>
<path d="M38.6243 25.627C38.6243 25.627 38.5548 25.5919 38.5548 25.5568C38.5548 25.5568 38.4852 25.5568 38.4852 25.5217C38.4852 25.5217 38.4505 25.5217 38.4157 25.4866C38.4157 25.4866 38.3462 25.4515 38.3115 25.4164C38.1724 25.3461 37.9987 25.2759 37.8596 25.1706C35.7048 24.1873 33.2372 24.7492 31.4299 26.1538C31.3604 26.224 31.2561 26.2942 31.1866 26.3293C31.0823 26.3996 31.0128 26.4698 30.9085 26.5752C30.9085 26.5752 30.839 26.6454 30.8043 26.6454C30.7 26.7507 30.5957 26.8561 30.4915 26.9614C30.2482 27.2423 30.0049 27.5233 29.8311 27.8393C29.6921 28.0149 29.6573 28.1202 29.5878 28.3309C29.5183 28.5065 29.414 28.7172 29.3445 28.8927C29.275 29.0683 29.1708 29.4195 29.1012 29.5951C28.9275 30.0867 28.8232 30.5432 28.7885 31.0348C28.997 31.0348 29.2055 31.0348 29.414 31.0348C29.6573 31.0348 29.8659 31.0348 30.1092 31.0348C30.3177 31.0348 30.5262 31.0348 30.7348 31.0348C31.8469 31.0699 32.9591 31.105 33.967 31.1401C35.9133 31.1401 37.8596 31.1401 39.8407 31.105C39.945 31.105 40.0492 31.105 40.1883 31.105C40.3273 31.105 40.4663 31.105 40.6053 31.105C40.9529 31.105 41.3004 31.105 41.648 31.105C41.7175 28.963 40.7096 26.821 38.659 25.5568L38.6243 25.627ZM39.9797 30.6485C39.9797 30.7187 39.9797 30.8241 39.945 30.8943C39.945 30.8943 39.945 30.8943 39.945 30.9294C39.945 30.9294 39.8755 30.9997 39.8407 30.9645C39.7712 30.9645 39.7364 30.8943 39.7364 30.8592C39.7364 30.8241 39.7364 30.7187 39.7364 30.6485C39.7364 30.508 39.7364 30.3325 39.6669 30.192C39.5974 29.876 39.4932 29.5951 39.3194 29.3492C39.2151 29.1737 39.0413 28.9981 38.9023 28.8576C38.8676 28.8225 38.798 28.7874 38.7633 28.7523C38.7285 28.7523 38.6938 28.6821 38.6243 28.6469C38.0682 28.2607 37.3731 28.05 36.7127 27.7691C36.4347 27.6286 36.1219 27.4881 35.8438 27.3126C35.7048 27.2423 35.5658 27.1721 35.4615 27.0668C35.392 27.0317 35.3225 26.9965 35.2877 26.9263C35.2182 26.8912 35.1835 26.821 35.2182 26.7156C35.2182 26.6454 35.2877 26.5752 35.3572 26.54C35.67 26.4347 36.0176 26.3996 36.3652 26.4347C36.5737 26.4347 36.7475 26.4698 36.956 26.5049C37.095 26.5049 37.1993 26.5752 37.3383 26.6103C37.7206 26.7507 38.0682 26.9263 38.4157 27.1721C38.4157 27.1721 38.4505 27.1721 38.4852 27.2072C38.4852 27.2072 38.52 27.2072 38.5548 27.2423C39.5974 28.0149 40.2925 29.279 40.0492 30.5783L39.9797 30.6485Z" fill="#143711"/>
<path d="M18.2582 40.0586V40.1288H18.3277C18.2929 40.1288 18.2582 40.1288 18.2582 40.0586Z" fill="#143711"/>
<path d="M54.3687 33.4918C54.2992 35.8796 53.2217 38.3728 51.0669 39.6018C50.9279 39.7422 50.9974 39.4964 50.9626 40.269C50.6846 43.9912 49.9547 48.6264 46.7225 50.9439C45.7493 51.6463 44.5329 51.8218 43.3859 51.8921C38.6592 52.2783 33.9324 52.6295 29.1709 52.4539C27.2941 52.3134 25.174 52.3837 23.5405 51.2249C20.6906 48.9073 19.3003 45.3255 18.5357 41.814L18.3967 40.9713L18.2924 40.1285V40.0583H18.3619C18.3272 40.0583 18.2924 40.0583 18.2924 39.988V39.9178C18.2924 39.9178 18.2924 39.9529 18.2924 39.988V40.0583L18.2229 40.0232C15.7553 38.8644 14.5736 36.1254 14.3998 33.562C14.2955 32.1925 15.512 30.9635 16.8674 31.0688C17.1802 31.0688 17.5973 31.0688 18.0144 31.0688C18.0839 31.0688 18.1534 31.0688 18.2229 31.0688C18.2924 31.0688 18.3619 31.0688 18.4662 31.0688C18.9875 31.0688 19.4741 31.0688 19.8217 31.1039C22.3588 31.2444 25.313 31.42 28.163 31.5955C28.2673 31.5955 28.3715 31.5955 28.4758 31.5955C28.5801 31.5955 28.6843 31.5955 28.7538 31.5955C28.9624 31.5955 29.1709 31.5955 29.3794 31.5955C29.6227 31.5955 29.8313 31.5955 30.0746 31.5955C30.2831 31.5955 30.4916 31.5955 30.7002 31.5955C31.8123 31.6307 32.9245 31.6658 33.9324 31.7009C35.8787 31.7009 37.825 31.7009 39.8061 31.6658C39.9104 31.6658 40.0146 31.6658 40.1537 31.6658C40.2927 31.6658 40.4317 31.6658 40.5707 31.6658C40.9183 31.6658 41.2658 31.6658 41.6134 31.6658C41.7872 31.6658 41.9609 31.6658 42.1347 31.6658C42.3085 31.6658 42.4823 31.6658 42.6213 31.6658C43.9073 31.6658 45.1932 31.5955 46.5139 31.5955C47.5566 31.5955 48.9468 31.5955 50.2675 31.5253C50.337 31.5253 50.4413 31.5253 50.5108 31.5253C50.5803 31.5253 50.6498 31.5253 50.7193 31.5253C51.484 31.5253 52.1791 31.5253 52.7699 31.4902H52.9089H53.0132C53.187 31.4902 53.4998 31.4902 53.6736 31.5955C54.2992 31.9116 54.4034 32.8246 54.3687 33.3513V33.4918Z" fill="#143711"/>
<path d="M70.7102 24.9901V22.4545H82.6562V24.9901H78.2031V37H75.1634V24.9901H70.7102ZM87.9137 37.2131C86.8105 37.2131 85.8564 36.9787 85.0515 36.5099C84.2513 36.0365 83.6334 35.3783 83.1978 34.5355C82.7622 33.688 82.5444 32.7055 82.5444 31.5881C82.5444 30.4612 82.7622 29.4763 83.1978 28.6335C83.6334 27.786 84.2513 27.1278 85.0515 26.6591C85.8564 26.1856 86.8105 25.9489 87.9137 25.9489C89.0169 25.9489 89.9686 26.1856 90.7688 26.6591C91.5737 27.1278 92.194 27.786 92.6296 28.6335C93.0652 29.4763 93.283 30.4612 93.283 31.5881C93.283 32.7055 93.0652 33.688 92.6296 34.5355C92.194 35.3783 91.5737 36.0365 90.7688 36.5099C89.9686 36.9787 89.0169 37.2131 87.9137 37.2131ZM87.9279 34.8693C88.4298 34.8693 88.8488 34.7273 89.185 34.4432C89.5212 34.1544 89.7745 33.7614 89.945 33.2642C90.1201 32.767 90.2077 32.2012 90.2077 31.5668C90.2077 30.9323 90.1201 30.3665 89.945 29.8693C89.7745 29.3722 89.5212 28.9792 89.185 28.6903C88.8488 28.4015 88.4298 28.2571 87.9279 28.2571C87.4213 28.2571 86.9951 28.4015 86.6495 28.6903C86.3086 28.9792 86.0505 29.3722 85.8754 29.8693C85.7049 30.3665 85.6197 30.9323 85.6197 31.5668C85.6197 32.2012 85.7049 32.767 85.8754 33.2642C86.0505 33.7614 86.3086 34.1544 86.6495 34.4432C86.9951 34.7273 87.4213 34.8693 87.9279 34.8693ZM95.2504 41.0909V26.0909H98.2333V27.9233H98.3683C98.5008 27.6297 98.6926 27.3314 98.9435 27.0284C99.1992 26.7206 99.5307 26.465 99.9379 26.2614C100.35 26.053 100.861 25.9489 101.472 25.9489C102.267 25.9489 103.001 26.1572 103.674 26.5739C104.346 26.9858 104.883 27.6084 105.286 28.4418C105.688 29.2704 105.89 30.3097 105.89 31.5597C105.89 32.7765 105.693 33.804 105.3 34.642C104.912 35.4754 104.382 36.1075 103.709 36.5384C103.042 36.9645 102.293 37.1776 101.465 37.1776C100.878 37.1776 100.378 37.0805 99.9663 36.8864C99.5591 36.6922 99.2253 36.4484 98.9648 36.1548C98.7044 35.8565 98.5056 35.5559 98.3683 35.2528H98.2759V41.0909H95.2504ZM98.212 31.5455C98.212 32.1941 98.302 32.7599 98.4819 33.2429C98.6618 33.7259 98.9222 34.1023 99.2631 34.3722C99.604 34.6373 100.018 34.7699 100.506 34.7699C100.998 34.7699 101.415 34.6349 101.756 34.3651C102.097 34.0904 102.355 33.7116 102.53 33.2287C102.71 32.741 102.8 32.1799 102.8 31.5455C102.8 30.9157 102.712 30.3617 102.537 29.8835C102.362 29.4053 102.104 29.0312 101.763 28.7614C101.422 28.4915 101.003 28.3565 100.506 28.3565C100.014 28.3565 99.5969 28.4867 99.256 28.7472C98.9199 29.0076 98.6618 29.3769 98.4819 29.8551C98.302 30.3333 98.212 30.8968 98.212 31.5455ZM107.907 41.0909V26.0909H110.89V27.9233H111.025C111.157 27.6297 111.349 27.3314 111.6 27.0284C111.855 26.7206 112.187 26.465 112.594 26.2614C113.006 26.053 113.517 25.9489 114.128 25.9489C114.924 25.9489 115.658 26.1572 116.33 26.5739C117.002 26.9858 117.54 27.6084 117.942 28.4418C118.345 29.2704 118.546 30.3097 118.546 31.5597C118.546 32.7765 118.349 33.804 117.956 34.642C117.568 35.4754 117.038 36.1075 116.365 36.5384C115.698 36.9645 114.95 37.1776 114.121 37.1776C113.534 37.1776 113.034 37.0805 112.623 36.8864C112.215 36.6922 111.882 36.4484 111.621 36.1548C111.361 35.8565 111.162 35.5559 111.025 35.2528H110.932V41.0909H107.907ZM110.868 31.5455C110.868 32.1941 110.958 32.7599 111.138 33.2429C111.318 33.7259 111.578 34.1023 111.919 34.3722C112.26 34.6373 112.675 34.7699 113.162 34.7699C113.655 34.7699 114.071 34.6349 114.412 34.3651C114.753 34.0904 115.011 33.7116 115.186 33.2287C115.366 32.741 115.456 32.1799 115.456 31.5455C115.456 30.9157 115.369 30.3617 115.194 29.8835C115.018 29.4053 114.76 29.0312 114.419 28.7614C114.078 28.4915 113.659 28.3565 113.162 28.3565C112.67 28.3565 112.253 28.4867 111.912 28.7472C111.576 29.0076 111.318 29.3769 111.138 29.8551C110.958 30.3333 110.868 30.8968 110.868 31.5455ZM120.563 37V26.0909H123.588V37H120.563ZM122.083 24.6847C121.633 24.6847 121.247 24.5355 120.925 24.2372C120.608 23.9342 120.449 23.572 120.449 23.1506C120.449 22.7339 120.608 22.3764 120.925 22.0781C121.247 21.7751 121.633 21.6236 122.083 21.6236C122.533 21.6236 122.916 21.7751 123.233 22.0781C123.555 22.3764 123.716 22.7339 123.716 23.1506C123.716 23.572 123.555 23.9342 123.233 24.2372C122.916 24.5355 122.533 24.6847 122.083 24.6847ZM129.038 30.6932V37H126.012V26.0909H128.896V28.0156H129.023C129.265 27.3812 129.67 26.8793 130.238 26.5099C130.806 26.1359 131.495 25.9489 132.305 25.9489C133.062 25.9489 133.723 26.1146 134.286 26.446C134.85 26.7775 135.288 27.2509 135.6 27.8665C135.913 28.4773 136.069 29.2064 136.069 30.054V37H133.043V30.5938C133.048 29.9261 132.878 29.4053 132.532 29.0312C132.186 28.6525 131.71 28.4631 131.104 28.4631C130.697 28.4631 130.337 28.5507 130.025 28.7259C129.717 28.901 129.476 29.1567 129.3 29.4929C129.13 29.8243 129.042 30.2244 129.038 30.6932ZM143.368 41.3182C142.388 41.3182 141.548 41.1832 140.847 40.9134C140.151 40.6482 139.597 40.286 139.185 39.8267C138.773 39.3674 138.506 38.8513 138.382 38.2784L141.181 37.902C141.266 38.1198 141.401 38.3234 141.586 38.5128C141.77 38.7022 142.014 38.8537 142.317 38.9673C142.625 39.0857 142.999 39.1449 143.439 39.1449C144.097 39.1449 144.64 38.9839 145.066 38.6619C145.497 38.3447 145.712 37.812 145.712 37.0639V35.0682H145.584C145.452 35.3712 145.253 35.6577 144.988 35.9276C144.722 36.1974 144.382 36.4176 143.965 36.5881C143.548 36.7585 143.051 36.8438 142.473 36.8438C141.654 36.8438 140.908 36.6544 140.236 36.2756C139.569 35.892 139.036 35.3073 138.638 34.5213C138.245 33.7306 138.049 32.7315 138.049 31.5241C138.049 30.2884 138.25 29.2562 138.652 28.4276C139.055 27.599 139.59 26.9787 140.257 26.5668C140.93 26.1548 141.666 25.9489 142.466 25.9489C143.077 25.9489 143.588 26.053 144 26.2614C144.412 26.465 144.744 26.7206 144.995 27.0284C145.25 27.3314 145.447 27.6297 145.584 27.9233H145.698V26.0909H148.702V37.1065C148.702 38.0346 148.475 38.8111 148.02 39.4361C147.566 40.0611 146.936 40.5298 146.131 40.8423C145.331 41.1596 144.41 41.3182 143.368 41.3182ZM143.432 34.571C143.92 34.571 144.332 34.4503 144.668 34.2088C145.009 33.9626 145.269 33.6122 145.449 33.1577C145.634 32.6984 145.726 32.1491 145.726 31.5099C145.726 30.8707 145.636 30.3168 145.456 29.848C145.276 29.3745 145.016 29.0076 144.675 28.7472C144.334 28.4867 143.92 28.3565 143.432 28.3565C142.935 28.3565 142.516 28.4915 142.175 28.7614C141.834 29.0265 141.576 29.3958 141.401 29.8693C141.226 30.3428 141.138 30.8897 141.138 31.5099C141.138 32.1397 141.226 32.6842 141.401 33.1435C141.581 33.598 141.839 33.9508 142.175 34.2017C142.516 34.4479 142.935 34.571 143.432 34.571Z" fill="#143711"/>
</g>
</svg>
