<svg width="162" height="60" viewBox="0 0 162 60" fill="none" xmlns="http://www.w3.org/2000/svg">
<g opacity="0.6">
<path d="M40.1761 39.4819C36.8892 38.1651 33.407 37.5666 29.8598 37.5067C25.4665 37.417 21.2684 38.225 17.233 39.841C17.1028 39.9009 16.9726 39.9308 16.875 39.9907C17.233 44.33 17.4608 48.1307 17.591 50.3752C17.656 51.5723 18.73 52.5 20.0317 52.5H38.0933C39.395 52.5 40.469 51.5723 40.534 50.3752C40.6642 48.1008 40.892 44.2402 41.25 39.841C40.9246 39.7213 40.5666 39.6016 40.2412 39.452L40.1761 39.4819Z" fill="#143711"/>
<path d="M44.2161 14.5767C45.1062 13.5305 45.901 12.3921 46.4414 11.069C46.8865 10.0536 47.3315 8.23817 45.901 7.65355C44.8519 7.192 43.771 7.86893 42.9127 8.39202C41.1324 9.53049 39.8926 11.192 38.6209 12.7921C37.0632 14.8229 35.6644 16.9459 34.361 19.1306H13.9198C13.4747 19.1306 13.125 19.469 13.125 19.8998V22.0229C13.125 22.4537 13.4747 22.7922 13.9198 22.7922H15.5093C15.5093 22.7922 15.5093 22.8229 15.5093 22.8537C16.2405 27.3461 16.7809 32.6692 17.1624 37.5C18.0207 37.1308 18.9109 36.7615 19.8328 36.4538C23.6794 35.1615 27.6532 34.7 31.7224 35.0384C34.0749 35.2231 36.3956 35.6538 38.6209 36.4231C39.066 36.5769 39.5747 36.6692 40.0197 36.8231C40.4012 36.9769 40.7827 37.1 41.1642 37.2538C41.5775 32.4846 42.0861 27.2537 42.8173 22.8229C42.8173 22.8229 42.8173 22.7922 42.8173 22.7614H44.4068C44.8519 22.7614 45.2016 22.4229 45.2016 21.9922V19.8691C45.2016 19.4383 44.8519 19.0998 44.4068 19.0998H39.3203C41.1324 17.746 42.7537 16.2075 44.2161 14.5152V14.5767ZM44.3114 21.9614H14.0469V20.0537H44.3114V21.9614Z" fill="#143711"/>
<path d="M79.1548 26.6378C79.098 26.0649 78.8542 25.6198 78.4233 25.3026C77.9924 24.9853 77.4077 24.8267 76.669 24.8267C76.1671 24.8267 75.7434 24.8977 75.3977 25.0398C75.0521 25.1771 74.7869 25.3688 74.6023 25.6151C74.4223 25.8613 74.3324 26.1406 74.3324 26.4531C74.3229 26.7135 74.3774 26.9408 74.4957 27.1349C74.6188 27.3291 74.7869 27.4972 75 27.6392C75.2131 27.7765 75.4593 27.8973 75.7386 28.0014C76.018 28.1009 76.3163 28.1861 76.6335 28.2571L77.9403 28.5696C78.5748 28.7116 79.1572 28.901 79.6875 29.1378C80.2178 29.3745 80.6771 29.6657 81.0653 30.0114C81.4536 30.357 81.7543 30.7642 81.9673 31.233C82.1851 31.7017 82.2964 32.2391 82.3011 32.8452C82.2964 33.7353 82.0691 34.5071 81.6193 35.1605C81.1742 35.8092 80.5303 36.3134 79.6875 36.6733C78.8494 37.0284 77.8385 37.206 76.6548 37.206C75.4806 37.206 74.4579 37.026 73.5866 36.6662C72.7202 36.3063 72.0431 35.7737 71.5554 35.0682C71.0724 34.358 70.8191 33.4796 70.7955 32.4332H73.7713C73.8045 32.9209 73.9441 33.3281 74.1903 33.6548C74.4413 33.9768 74.7751 34.2206 75.1918 34.3864C75.6132 34.5473 76.089 34.6278 76.6193 34.6278C77.1402 34.6278 77.5923 34.5521 77.9759 34.4006C78.3641 34.2491 78.6648 34.0384 78.8778 33.7685C79.0909 33.4986 79.1974 33.1884 79.1974 32.8381C79.1974 32.5114 79.1004 32.2367 78.9062 32.0142C78.7169 31.7917 78.4375 31.6023 78.0682 31.446C77.7036 31.2898 77.2562 31.1477 76.7259 31.0199L75.142 30.6222C73.9157 30.3239 72.9474 29.8575 72.2372 29.223C71.527 28.5885 71.1742 27.7339 71.179 26.6591C71.1742 25.7784 71.4086 25.009 71.8821 24.3509C72.3603 23.6927 73.0161 23.179 73.8494 22.8097C74.6828 22.4403 75.6297 22.2557 76.6903 22.2557C77.7699 22.2557 78.7121 22.4403 79.517 22.8097C80.3267 23.179 80.9564 23.6927 81.4062 24.3509C81.8561 25.009 82.0881 25.7713 82.1023 26.6378H79.1548ZM95.8469 25.4872H97.6012C97.5965 26.3111 97.4734 27.0024 97.2319 27.5611C96.9904 28.1151 96.5808 28.5317 96.0032 28.8111C95.4303 29.0904 94.6467 29.2301 93.6523 29.2301V27.8807C94.3105 27.8807 94.7934 27.7931 95.1012 27.6179C95.4137 27.4427 95.6149 27.1799 95.7049 26.8295C95.7996 26.4744 95.8469 26.027 95.8469 25.4872ZM91.3796 32.3551V26.0909H94.3981V37H91.5004V35.0185H91.3867C91.1405 35.6577 90.7309 36.1714 90.158 36.5597C89.5898 36.9479 88.8962 37.142 88.0771 37.142C87.3479 37.142 86.7063 36.9763 86.1523 36.6449C85.5984 36.3134 85.1651 35.8423 84.8526 35.2315C84.5449 34.6207 84.3886 33.8892 84.3839 33.0369V26.0909H87.4094V32.4972C87.4094 33.1411 87.5799 33.6501 87.9208 34.0241C88.2665 34.3982 88.7257 34.5852 89.2987 34.5852C89.6632 34.5852 90.0018 34.5024 90.3143 34.3366C90.6315 34.1662 90.8872 33.9152 91.0813 33.5838C91.2802 33.2524 91.3796 32.8428 91.3796 32.3551ZM87.3739 24.7486L85.6907 24.7273C85.6907 23.8229 85.9132 23.1293 86.3583 22.6463C86.8081 22.1634 87.355 21.9195 87.9989 21.9148C88.3304 21.9148 88.6145 21.9692 88.8512 22.0781C89.0927 22.1823 89.3081 22.3054 89.4975 22.4474C89.6916 22.5895 89.8763 22.715 90.0515 22.8239C90.2267 22.928 90.4161 22.9801 90.6197 22.9801C90.8943 22.9754 91.1026 22.8736 91.2447 22.6747C91.3915 22.4711 91.4648 22.206 91.4648 21.8793L93.1197 21.929C93.1102 22.8239 92.8829 23.5152 92.4379 24.0028C91.9928 24.4858 91.4506 24.7296 90.8114 24.7344C90.4563 24.7344 90.158 24.6823 89.9165 24.5781C89.6798 24.4692 89.4715 24.3461 89.2915 24.2088C89.1116 24.0668 88.9364 23.9413 88.766 23.8324C88.5955 23.7235 88.4038 23.669 88.1907 23.669C87.9445 23.669 87.7456 23.7661 87.5941 23.9602C87.4473 24.1544 87.3739 24.4171 87.3739 24.7486ZM101.603 37.206C100.907 37.206 100.287 37.0852 99.7425 36.8438C99.198 36.5975 98.7672 36.2353 98.4499 35.7571C98.1374 35.2741 97.9812 34.6728 97.9812 33.9531C97.9812 33.3471 98.0924 32.8381 98.315 32.4261C98.5375 32.0142 98.8406 31.6828 99.2241 31.4318C99.6076 31.1809 100.043 30.9915 100.531 30.8636C101.023 30.7358 101.539 30.6458 102.079 30.5938C102.714 30.5275 103.225 30.4659 103.613 30.4091C104.002 30.3475 104.283 30.2576 104.458 30.1392C104.634 30.0208 104.721 29.8456 104.721 29.6136V29.571C104.721 29.1212 104.579 28.7732 104.295 28.527C104.016 28.2808 103.618 28.1577 103.102 28.1577C102.557 28.1577 102.124 28.2784 101.802 28.5199C101.48 28.7566 101.267 29.0549 101.163 29.4148L98.3647 29.1875C98.5067 28.5246 98.7861 27.9517 99.2028 27.4688C99.6194 26.9811 100.157 26.607 100.815 26.3466C101.478 26.0814 102.245 25.9489 103.116 25.9489C103.722 25.9489 104.302 26.0199 104.856 26.1619C105.415 26.304 105.91 26.5241 106.341 26.8224C106.776 27.1207 107.119 27.5043 107.37 27.973C107.621 28.437 107.747 28.9934 107.747 29.642V37H104.877V35.4872H104.792C104.617 35.8281 104.383 36.1288 104.089 36.3892C103.796 36.6449 103.443 36.8461 103.031 36.9929C102.619 37.1349 102.143 37.206 101.603 37.206ZM102.47 35.1179C102.915 35.1179 103.308 35.0303 103.649 34.8551C103.99 34.6752 104.257 34.4337 104.451 34.1307C104.645 33.8277 104.743 33.4844 104.743 33.1009V31.9432C104.648 32.0047 104.518 32.0616 104.352 32.1136C104.191 32.161 104.009 32.206 103.805 32.2486C103.601 32.2865 103.398 32.322 103.194 32.3551C102.991 32.3835 102.806 32.4096 102.64 32.4332C102.285 32.4853 101.975 32.5682 101.71 32.6818C101.445 32.7955 101.239 32.9493 101.092 33.1435C100.945 33.3329 100.872 33.5696 100.872 33.8537C100.872 34.2656 101.021 34.5805 101.319 34.7983C101.622 35.0114 102.006 35.1179 102.47 35.1179ZM119.652 37.2131C118.535 37.2131 117.573 36.9763 116.768 36.5028C115.968 36.0246 115.353 35.3617 114.922 34.5142C114.496 33.6667 114.283 32.6913 114.283 31.5881C114.283 30.4706 114.498 29.4905 114.929 28.6477C115.365 27.8002 115.982 27.1397 116.783 26.6662C117.583 26.188 118.535 25.9489 119.638 25.9489C120.589 25.9489 121.423 26.1217 122.138 26.4673C122.853 26.813 123.419 27.2983 123.835 27.9233C124.252 28.5483 124.482 29.2822 124.524 30.125H121.669C121.589 29.5805 121.375 29.1425 121.03 28.8111C120.689 28.4749 120.241 28.3068 119.688 28.3068C119.219 28.3068 118.809 28.4347 118.459 28.6903C118.113 28.9413 117.843 29.3082 117.649 29.7912C117.455 30.2741 117.358 30.8589 117.358 31.5455C117.358 32.2415 117.453 32.8333 117.642 33.321C117.836 33.8087 118.108 34.1804 118.459 34.4361C118.809 34.6918 119.219 34.8196 119.688 34.8196C120.033 34.8196 120.343 34.7486 120.618 34.6065C120.897 34.4645 121.127 34.2585 121.307 33.9886C121.491 33.714 121.612 33.3849 121.669 33.0014H124.524C124.477 33.8348 124.25 34.5687 123.842 35.2031C123.44 35.8329 122.884 36.3253 122.173 36.6804C121.463 37.0355 120.623 37.2131 119.652 37.2131ZM129.487 30.6932V37H126.461V22.4545H129.402V28.0156H129.529C129.776 27.3717 130.173 26.8674 130.723 26.5028C131.272 26.1335 131.961 25.9489 132.789 25.9489C133.547 25.9489 134.208 26.1146 134.771 26.446C135.339 26.7727 135.779 27.2438 136.092 27.8594C136.409 28.4702 136.565 29.2017 136.561 30.054V37H133.535V30.5938C133.54 29.9214 133.369 29.3982 133.024 29.0241C132.683 28.6501 132.205 28.4631 131.589 28.4631C131.177 28.4631 130.813 28.5507 130.495 28.7259C130.183 28.901 129.937 29.1567 129.757 29.4929C129.582 29.8243 129.492 30.2244 129.487 30.6932ZM145.938 32.3551V26.0909H148.963V37H146.058V35.0185H145.945C145.698 35.6577 145.289 36.1714 144.716 36.5597C144.148 36.9479 143.454 37.142 142.635 37.142C141.906 37.142 141.264 36.9763 140.71 36.6449C140.156 36.3134 139.723 35.8423 139.411 35.2315C139.103 34.6207 138.946 33.8892 138.942 33.0369V26.0909H141.967V32.4972C141.972 33.1411 142.145 33.6501 142.486 34.0241C142.827 34.3982 143.284 34.5852 143.857 34.5852C144.221 34.5852 144.562 34.5024 144.879 34.3366C145.196 34.1662 145.452 33.9152 145.646 33.5838C145.845 33.2524 145.942 32.8428 145.938 32.3551ZM154.494 37.206C153.798 37.206 153.178 37.0852 152.633 36.8438C152.089 36.5975 151.658 36.2353 151.341 35.7571C151.028 35.2741 150.872 34.6728 150.872 33.9531C150.872 33.3471 150.983 32.8381 151.206 32.4261C151.428 32.0142 151.731 31.6828 152.115 31.4318C152.498 31.1809 152.934 30.9915 153.422 30.8636C153.914 30.7358 154.43 30.6458 154.97 30.5938C155.604 30.5275 156.116 30.4659 156.504 30.4091C156.892 30.3475 157.174 30.2576 157.349 30.1392C157.524 30.0208 157.612 29.8456 157.612 29.6136V29.571C157.612 29.1212 157.47 28.7732 157.186 28.527C156.906 28.2808 156.509 28.1577 155.993 28.1577C155.448 28.1577 155.015 28.2784 154.693 28.5199C154.371 28.7566 154.158 29.0549 154.054 29.4148L151.255 29.1875C151.397 28.5246 151.677 27.9517 152.093 27.4688C152.51 26.9811 153.047 26.607 153.706 26.3466C154.368 26.0814 155.136 25.9489 156.007 25.9489C156.613 25.9489 157.193 26.0199 157.747 26.1619C158.306 26.304 158.8 26.5241 159.231 26.8224C159.667 27.1207 160.01 27.5043 160.261 27.973C160.512 28.437 160.637 28.9934 160.637 29.642V37H157.768V35.4872H157.683C157.508 35.8281 157.273 36.1288 156.98 36.3892C156.686 36.6449 156.333 36.8461 155.922 36.9929C155.51 37.1349 155.034 37.206 154.494 37.206ZM155.36 35.1179C155.806 35.1179 156.199 35.0303 156.539 34.8551C156.88 34.6752 157.148 34.4337 157.342 34.1307C157.536 33.8277 157.633 33.4844 157.633 33.1009V31.9432C157.538 32.0047 157.408 32.0616 157.243 32.1136C157.082 32.161 156.899 32.206 156.696 32.2486C156.492 32.2865 156.288 32.322 156.085 32.3551C155.881 32.3835 155.697 32.4096 155.531 32.4332C155.176 32.4853 154.866 32.5682 154.6 32.6818C154.335 32.7955 154.129 32.9493 153.983 33.1435C153.836 33.3329 153.762 33.5696 153.762 33.8537C153.762 34.2656 153.912 34.5805 154.21 34.7983C154.513 35.0114 154.896 35.1179 155.36 35.1179Z" fill="#143711"/>
</g>
</svg>
